solid OpenSCAD_Model
  facet normal -1 0 0
    outer loop
      vertex -4.75 -3.5 -28
      vertex -4.75 3.5 28
      vertex -4.75 3.5 -28
    endloop
  endfacet
  facet normal -1 -0 0
    outer loop
      vertex -4.75 3.5 28
      vertex -4.75 -3.5 -28
      vertex -4.75 -3.5 28
    endloop
  endfacet
  facet normal -0 0 1
    outer loop
      vertex -4.75 3.5 28
      vertex 4.75 -3.5 28
      vertex 4.75 3.5 28
    endloop
  endfacet
  facet normal 0 0 1
    outer loop
      vertex 4.75 -3.5 28
      vertex -4.75 3.5 28
      vertex -4.75 -3.5 28
    endloop
  endfacet
  facet normal 1 -0 0
    outer loop
      vertex 4.75 -3.5 28
      vertex 4.75 3.5 -28
      vertex 4.75 3.5 28
    endloop
  endfacet
  facet normal 1 0 0
    outer loop
      vertex 4.75 3.5 -28
      vertex 4.75 -3.5 28
      vertex 4.75 -3.5 -28
    endloop
  endfacet
  facet normal 0 1 0
    outer loop
      vertex 4.75 3.5 28
      vertex 2.75 3.5 26
      vertex -4.75 3.5 28
    endloop
  endfacet
  facet normal 0 1 0
    outer loop
      vertex 4.75 3.5 28
      vertex 2.75 3.5 -26
      vertex 2.75 3.5 26
    endloop
  endfacet
  facet normal 0 1 0
    outer loop
      vertex 2.75 3.5 -26
      vertex 4.75 3.5 -28
      vertex -2.75 3.5 -26
    endloop
  endfacet
  facet normal 0 1 -0
    outer loop
      vertex 4.75 3.5 -28
      vertex 2.75 3.5 -26
      vertex 4.75 3.5 28
    endloop
  endfacet
  facet normal 0 1 -0
    outer loop
      vertex -2.75 3.5 26
      vertex -4.75 3.5 28
      vertex 2.75 3.5 26
    endloop
  endfacet
  facet normal 0 1 -0
    outer loop
      vertex -2.75 3.5 -26
      vertex -4.75 3.5 28
      vertex -2.75 3.5 26
    endloop
  endfacet
  facet normal 0 1 0
    outer loop
      vertex -2.75 3.5 -26
      vertex -4.75 3.5 -28
      vertex -4.75 3.5 28
    endloop
  endfacet
  facet normal 0 1 0
    outer loop
      vertex -4.75 3.5 -28
      vertex -2.75 3.5 -26
      vertex 4.75 3.5 -28
    endloop
  endfacet
  facet normal 0 0 -1
    outer loop
      vertex -4.75 -3.5 -28
      vertex 4.75 3.5 -28
      vertex 4.75 -3.5 -28
    endloop
  endfacet
  facet normal -0 0 -1
    outer loop
      vertex 4.75 3.5 -28
      vertex -4.75 -3.5 -28
      vertex -4.75 3.5 -28
    endloop
  endfacet
  facet normal 0 -1 0
    outer loop
      vertex -4.75 -3.5 28
      vertex -2.75 -3.5 26
      vertex 4.75 -3.5 28
    endloop
  endfacet
  facet normal 0 -1 0
    outer loop
      vertex -4.75 -3.5 28
      vertex -2.75 -3.5 -26
      vertex -2.75 -3.5 26
    endloop
  endfacet
  facet normal 0 -1 -0
    outer loop
      vertex -2.75 -3.5 -26
      vertex -4.75 -3.5 -28
      vertex 2.75 -3.5 -26
    endloop
  endfacet
  facet normal 0 -1 0
    outer loop
      vertex -4.75 -3.5 -28
      vertex -2.75 -3.5 -26
      vertex -4.75 -3.5 28
    endloop
  endfacet
  facet normal 0 -1 0
    outer loop
      vertex 2.75 -3.5 26
      vertex 4.75 -3.5 28
      vertex -2.75 -3.5 26
    endloop
  endfacet
  facet normal 0 -1 0
    outer loop
      vertex 2.75 -3.5 -26
      vertex 4.75 -3.5 28
      vertex 2.75 -3.5 26
    endloop
  endfacet
  facet normal 0 -1 0
    outer loop
      vertex 2.75 -3.5 -26
      vertex 4.75 -3.5 -28
      vertex 4.75 -3.5 28
    endloop
  endfacet
  facet normal 0 -1 0
    outer loop
      vertex 4.75 -3.5 -28
      vertex 2.75 -3.5 -26
      vertex -4.75 -3.5 -28
    endloop
  endfacet
  facet normal 1 -0 0
    outer loop
      vertex -2.75 -3.5 26
      vertex -2.75 3.5 -26
      vertex -2.75 3.5 26
    endloop
  endfacet
  facet normal 1 0 0
    outer loop
      vertex -2.75 3.5 -26
      vertex -2.75 -3.5 26
      vertex -2.75 -3.5 -26
    endloop
  endfacet
  facet normal 0 0 -1
    outer loop
      vertex -2.75 -3.5 26
      vertex 2.75 3.5 26
      vertex 2.75 -3.5 26
    endloop
  endfacet
  facet normal -0 0 -1
    outer loop
      vertex 2.75 3.5 26
      vertex -2.75 -3.5 26
      vertex -2.75 3.5 26
    endloop
  endfacet
  facet normal -1 0 0
    outer loop
      vertex 2.75 -3.5 -26
      vertex 2.75 3.5 26
      vertex 2.75 3.5 -26
    endloop
  endfacet
  facet normal -1 -0 0
    outer loop
      vertex 2.75 3.5 26
      vertex 2.75 -3.5 -26
      vertex 2.75 -3.5 26
    endloop
  endfacet
  facet normal -0 0 1
    outer loop
      vertex -2.75 3.5 -26
      vertex 2.75 -3.5 -26
      vertex 2.75 3.5 -26
    endloop
  endfacet
  facet normal 0 0 1
    outer loop
      vertex 2.75 -3.5 -26
      vertex -2.75 3.5 -26
      vertex -2.75 -3.5 -26
    endloop
  endfacet
endsolid OpenSCAD_Model
