solid OpenSCAD_Model
  facet normal 0.433883 -0.900969 0
    outer loop
      vertex -10.4813 -0.129789 0
      vertex -8.97127 0.597386 2
      vertex -10.4813 -0.129789 2
    endloop
  endfacet
  facet normal 0.433883 -0.900969 0
    outer loop
      vertex -8.97127 0.597386 2
      vertex -10.4813 -0.129789 0
      vertex -8.97127 0.597386 0
    endloop
  endfacet
  facet normal 0.974928 -0.222521 0
    outer loop
      vertex -10.8542 -1.76374 2
      vertex -10.4813 -0.129789 0
      vertex -10.4813 -0.129789 2
    endloop
  endfacet
  facet normal 0.974928 -0.222521 0
    outer loop
      vertex -10.4813 -0.129789 0
      vertex -10.8542 -1.76374 2
      vertex -10.8542 -1.76374 0
    endloop
  endfacet
  facet normal 0.781831 0.62349 0
    outer loop
      vertex -9.80925 -3.07407 2
      vertex -10.8542 -1.76374 0
      vertex -10.8542 -1.76374 2
    endloop
  endfacet
  facet normal 0.781831 0.62349 0
    outer loop
      vertex -10.8542 -1.76374 0
      vertex -9.80925 -3.07407 2
      vertex -9.80925 -3.07407 0
    endloop
  endfacet
  facet normal -0.433883 -0.900969 0
    outer loop
      vertex -8.97127 0.597386 0
      vertex -7.46127 -0.129789 2
      vertex -8.97127 0.597386 2
    endloop
  endfacet
  facet normal -0.433883 -0.900969 -0
    outer loop
      vertex -7.46127 -0.129789 2
      vertex -8.97127 0.597386 0
      vertex -7.46127 -0.129789 0
    endloop
  endfacet
  facet normal -0.974928 -0.222521 0
    outer loop
      vertex -7.08833 -1.76374 0
      vertex -7.46127 -0.129789 2
      vertex -7.46127 -0.129789 0
    endloop
  endfacet
  facet normal -0.974928 -0.222521 0
    outer loop
      vertex -7.46127 -0.129789 2
      vertex -7.08833 -1.76374 0
      vertex -7.08833 -1.76374 2
    endloop
  endfacet
  facet normal -0.781831 0.62349 0
    outer loop
      vertex -8.13328 -3.07407 0
      vertex -7.08833 -1.76374 2
      vertex -7.08833 -1.76374 0
    endloop
  endfacet
  facet normal -0.781831 0.62349 0
    outer loop
      vertex -7.08833 -1.76374 2
      vertex -8.13328 -3.07407 0
      vertex -8.13328 -3.07407 2
    endloop
  endfacet
  facet normal 0 1 -0
    outer loop
      vertex -8.13328 -3.07407 0
      vertex -9.80925 -3.07407 2
      vertex -8.13328 -3.07407 2
    endloop
  endfacet
  facet normal 0 1 0
    outer loop
      vertex -9.80925 -3.07407 2
      vertex -8.13328 -3.07407 0
      vertex -9.80925 -3.07407 0
    endloop
  endfacet
  facet normal 0.433883 -0.900969 0
    outer loop
      vertex 7.46127 -0.129789 0
      vertex 8.97127 0.597386 2
      vertex 7.46127 -0.129789 2
    endloop
  endfacet
  facet normal 0.433883 -0.900969 0
    outer loop
      vertex 8.97127 0.597386 2
      vertex 7.46127 -0.129789 0
      vertex 8.97127 0.597386 0
    endloop
  endfacet
  facet normal 0 1 -0
    outer loop
      vertex 9.80925 -3.07407 0
      vertex 8.13328 -3.07407 2
      vertex 9.80925 -3.07407 2
    endloop
  endfacet
  facet normal 0 1 0
    outer loop
      vertex 8.13328 -3.07407 2
      vertex 9.80925 -3.07407 0
      vertex 8.13328 -3.07407 0
    endloop
  endfacet
  facet normal 0.974928 -0.222521 0
    outer loop
      vertex 7.08833 -1.76374 2
      vertex 7.46127 -0.129789 0
      vertex 7.46127 -0.129789 2
    endloop
  endfacet
  facet normal 0.974928 -0.222521 0
    outer loop
      vertex 7.46127 -0.129789 0
      vertex 7.08833 -1.76374 2
      vertex 7.08833 -1.76374 0
    endloop
  endfacet
  facet normal 0.781831 0.62349 0
    outer loop
      vertex 8.13328 -3.07407 2
      vertex 7.08833 -1.76374 0
      vertex 7.08833 -1.76374 2
    endloop
  endfacet
  facet normal 0.781831 0.62349 0
    outer loop
      vertex 7.08833 -1.76374 0
      vertex 8.13328 -3.07407 2
      vertex 8.13328 -3.07407 0
    endloop
  endfacet
  facet normal -0.433883 -0.900969 0
    outer loop
      vertex 8.97127 0.597386 0
      vertex 10.4813 -0.129789 2
      vertex 8.97127 0.597386 2
    endloop
  endfacet
  facet normal -0.433883 -0.900969 -0
    outer loop
      vertex 10.4813 -0.129789 2
      vertex 8.97127 0.597386 0
      vertex 10.4813 -0.129789 0
    endloop
  endfacet
  facet normal -0.974928 -0.222521 0
    outer loop
      vertex 10.8542 -1.76374 0
      vertex 10.4813 -0.129789 2
      vertex 10.4813 -0.129789 0
    endloop
  endfacet
  facet normal -0.974928 -0.222521 0
    outer loop
      vertex 10.4813 -0.129789 2
      vertex 10.8542 -1.76374 0
      vertex 10.8542 -1.76374 2
    endloop
  endfacet
  facet normal -0.781831 0.62349 0
    outer loop
      vertex 9.80925 -3.07407 0
      vertex 10.8542 -1.76374 2
      vertex 10.8542 -1.76374 0
    endloop
  endfacet
  facet normal -0.781831 0.62349 0
    outer loop
      vertex 10.8542 -1.76374 2
      vertex 9.80925 -3.07407 0
      vertex 9.80925 -3.07407 2
    endloop
  endfacet
  facet normal -1 0 0
    outer loop
      vertex -13.7425 8.16603 0
      vertex -13.7425 0.166025 2
      vertex -13.7425 8.16603 2
    endloop
  endfacet
  facet normal -1 0 0
    outer loop
      vertex -13.7425 -8.16603 0
      vertex -13.7425 0.166025 2
      vertex -13.7425 8.16603 0
    endloop
  endfacet
  facet normal -1 0 0
    outer loop
      vertex -13.7425 -8.16603 4.6
      vertex -13.7425 0.166025 2
      vertex -13.7425 -8.16603 0
    endloop
  endfacet
  facet normal -1 0 0
    outer loop
      vertex -13.7425 0.166025 2
      vertex -13.7425 -8.16603 4.6
      vertex -13.7425 0.166025 4.6
    endloop
  endfacet
  facet normal -0 0 1
    outer loop
      vertex -13.7425 0.166025 4.6
      vertex -11.7425 -3.16603 4.6
      vertex -11.7425 0.166025 4.6
    endloop
  endfacet
  facet normal 0 0 1
    outer loop
      vertex -13.7425 -8.16603 4.6
      vertex -12.0325 -4.87603 4.6
      vertex -13.7425 0.166025 4.6
    endloop
  endfacet
  facet normal 0 0 1
    outer loop
      vertex -11.7425 -3.16603 4.6
      vertex -13.7425 0.166025 4.6
      vertex -12.0325 -4.87603 4.6
    endloop
  endfacet
  facet normal 0 0 1
    outer loop
      vertex 13.7425 -8.16603 4.6
      vertex 11.452 -12.7613 4.6
      vertex 11.5 -13.249 4.6
    endloop
  endfacet
  facet normal 0 0 1
    outer loop
      vertex 13.7425 -8.16603 4.6
      vertex 11.3097 -12.2923 4.6
      vertex 11.452 -12.7613 4.6
    endloop
  endfacet
  facet normal 0 0 1
    outer loop
      vertex 13.7425 -8.16603 4.6
      vertex 11.0787 -11.8601 4.6
      vertex 11.3097 -12.2923 4.6
    endloop
  endfacet
  facet normal 0 0 1
    outer loop
      vertex 13.7425 -8.16603 4.6
      vertex 10.7678 -11.4813 4.6
      vertex 11.0787 -11.8601 4.6
    endloop
  endfacet
  facet normal 0 0 1
    outer loop
      vertex 13.7425 -8.16603 4.6
      vertex 10.3889 -11.1704 4.6
      vertex 10.7678 -11.4813 4.6
    endloop
  endfacet
  facet normal 0 0 1
    outer loop
      vertex 12.0325 -6.45603 4.6
      vertex 9.95671 -10.9393 4.6
      vertex 10.3889 -11.1704 4.6
    endloop
  endfacet
  facet normal 0 0 1
    outer loop
      vertex 12.0325 -6.45603 4.6
      vertex 9.48773 -10.7971 4.6
      vertex 9.95671 -10.9393 4.6
    endloop
  endfacet
  facet normal 0 0 1
    outer loop
      vertex 12.0325 -6.45603 4.6
      vertex 9 -10.749 4.6
      vertex 9.48773 -10.7971 4.6
    endloop
  endfacet
  facet normal 0 0 1
    outer loop
      vertex 12.0325 -6.45603 4.6
      vertex 8.51227 -10.7971 4.6
      vertex 9 -10.749 4.6
    endloop
  endfacet
  facet normal 0 0 1
    outer loop
      vertex 12.0325 -6.45603 4.6
      vertex 8.04329 -10.9393 4.6
      vertex 8.51227 -10.7971 4.6
    endloop
  endfacet
  facet normal -0 0 1
    outer loop
      vertex -1.0376e-007 -8.16603 4.6
      vertex 8.04329 -10.9393 4.6
      vertex 12.0325 -6.45603 4.6
    endloop
  endfacet
  facet normal 0 0 1
    outer loop
      vertex 8.04329 -10.9393 4.6
      vertex -1.0376e-007 -8.16603 4.6
      vertex 7.61107 -11.1704 4.6
    endloop
  endfacet
  facet normal 0 0 1
    outer loop
      vertex 6.54804 -12.7613 4.6
      vertex 2.5 -13.249 4.6
      vertex 6.5 -13.249 4.6
    endloop
  endfacet
  facet normal 0 0 1
    outer loop
      vertex 2.45196 -12.7613 4.6
      vertex 6.54804 -12.7613 4.6
      vertex 6.6903 -12.2923 4.6
    endloop
  endfacet
  facet normal 0 0 1
    outer loop
      vertex 2.3097 -12.2923 4.6
      vertex 6.6903 -12.2923 4.6
      vertex 6.92133 -11.8601 4.6
    endloop
  endfacet
  facet normal 0 0 1
    outer loop
      vertex 2.07867 -11.8601 4.6
      vertex 6.92133 -11.8601 4.6
      vertex 7.23223 -11.4813 4.6
    endloop
  endfacet
  facet normal 0 0 1
    outer loop
      vertex 7.61107 -11.1704 4.6
      vertex -1.0376e-007 -8.16603 4.6
      vertex 7.23223 -11.4813 4.6
    endloop
  endfacet
  facet normal 0 0 1
    outer loop
      vertex 6.54804 -12.7613 4.6
      vertex 2.45196 -12.7613 4.6
      vertex 2.5 -13.249 4.6
    endloop
  endfacet
  facet normal 0 0 1
    outer loop
      vertex 6.6903 -12.2923 4.6
      vertex 2.3097 -12.2923 4.6
      vertex 2.45196 -12.7613 4.6
    endloop
  endfacet
  facet normal 0 0 1
    outer loop
      vertex 6.92133 -11.8601 4.6
      vertex 2.07867 -11.8601 4.6
      vertex 2.3097 -12.2923 4.6
    endloop
  endfacet
  facet normal 0 0 1
    outer loop
      vertex 7.23223 -11.4813 4.6
      vertex 1.76777 -11.4813 4.6
      vertex 2.07867 -11.8601 4.6
    endloop
  endfacet
  facet normal 0 0 1
    outer loop
      vertex 7.23223 -11.4813 4.6
      vertex -1.0376e-007 -8.16603 4.6
      vertex 1.76777 -11.4813 4.6
    endloop
  endfacet
  facet normal 0 0 1
    outer loop
      vertex 1.76777 -11.4813 4.6
      vertex -1.0376e-007 -8.16603 4.6
      vertex 1.38893 -11.1704 4.6
    endloop
  endfacet
  facet normal -0 0 1
    outer loop
      vertex -1.0376e-007 -9.16603 4.6
      vertex 1.38893 -11.1704 4.6
      vertex -1.0376e-007 -8.16603 4.6
    endloop
  endfacet
  facet normal 0 0 1
    outer loop
      vertex 1.38893 -11.1704 4.6
      vertex -1.0376e-007 -9.16603 4.6
      vertex 0.956708 -10.9393 4.6
    endloop
  endfacet
  facet normal -0 0 1
    outer loop
      vertex -12.0325 -6.45603 4.6
      vertex -1.0376e-007 -8.16603 4.6
      vertex 12.0325 -6.45603 4.6
    endloop
  endfacet
  facet normal 0 0 1
    outer loop
      vertex -12.0325 -6.45603 4.6
      vertex -13.7425 -8.16603 4.6
      vertex -1.0376e-007 -8.16603 4.6
    endloop
  endfacet
  facet normal 0 0 1
    outer loop
      vertex -12.0325 -4.87603 4.6
      vertex -13.7425 -8.16603 4.6
      vertex -12.0325 -6.45603 4.6
    endloop
  endfacet
  facet normal -0 0 1
    outer loop
      vertex 12.0325 -4.87603 4.6
      vertex 13.7425 -8.16603 4.6
      vertex 13.7425 0.166025 4.6
    endloop
  endfacet
  facet normal 0 0 1
    outer loop
      vertex 13.7425 -8.16603 4.6
      vertex 12.0325 -4.87603 4.6
      vertex 12.0325 -6.45603 4.6
    endloop
  endfacet
  facet normal 0 0 1
    outer loop
      vertex 11.7425 -3.16603 4.6
      vertex 13.7425 0.166025 4.6
      vertex 11.7425 0.166025 4.6
    endloop
  endfacet
  facet normal 0 0 1
    outer loop
      vertex 13.7425 0.166025 4.6
      vertex 11.7425 -3.16603 4.6
      vertex 12.0325 -4.87603 4.6
    endloop
  endfacet
  facet normal -0 0 1
    outer loop
      vertex -11.7425 -3.16603 4.6
      vertex 12.0325 -4.87603 4.6
      vertex 11.7425 -3.16603 4.6
    endloop
  endfacet
  facet normal 0 0 1
    outer loop
      vertex 12.0325 -4.87603 4.6
      vertex -11.7425 -3.16603 4.6
      vertex -12.0325 -4.87603 4.6
    endloop
  endfacet
  facet normal 0 0 1
    outer loop
      vertex 10.3889 -11.1704 4.6
      vertex 13.7425 -8.16603 4.6
      vertex 12.0325 -6.45603 4.6
    endloop
  endfacet
  facet normal 0 0 1
    outer loop
      vertex 13.7425 -8.16603 4.6
      vertex 11.5 -13.249 4.6
      vertex 13.7425 -17.3321 4.6
    endloop
  endfacet
  facet normal -0 0 1
    outer loop
      vertex 11.452 -13.7368 4.6
      vertex 13.7425 -17.3321 4.6
      vertex 11.5 -13.249 4.6
    endloop
  endfacet
  facet normal -0 0 1
    outer loop
      vertex 11.3097 -14.2057 4.6
      vertex 13.7425 -17.3321 4.6
      vertex 11.452 -13.7368 4.6
    endloop
  endfacet
  facet normal -0 0 1
    outer loop
      vertex 11.0787 -14.638 4.6
      vertex 13.7425 -17.3321 4.6
      vertex 11.3097 -14.2057 4.6
    endloop
  endfacet
  facet normal -0 0 1
    outer loop
      vertex 10.7678 -15.0168 4.6
      vertex 13.7425 -17.3321 4.6
      vertex 11.0787 -14.638 4.6
    endloop
  endfacet
  facet normal -0 0 1
    outer loop
      vertex 10.3889 -15.3277 4.6
      vertex 13.7425 -17.3321 4.6
      vertex 10.7678 -15.0168 4.6
    endloop
  endfacet
  facet normal -0 0 1
    outer loop
      vertex 9.95671 -15.5587 4.6
      vertex 13.7425 -17.3321 4.6
      vertex 10.3889 -15.3277 4.6
    endloop
  endfacet
  facet normal -0 0 1
    outer loop
      vertex 9.48773 -15.701 4.6
      vertex 13.7425 -17.3321 4.6
      vertex 9.95671 -15.5587 4.6
    endloop
  endfacet
  facet normal -0 0 1
    outer loop
      vertex 9 -15.749 4.6
      vertex 13.7425 -17.3321 4.6
      vertex 9.48773 -15.701 4.6
    endloop
  endfacet
  facet normal 0 0 1
    outer loop
      vertex 8.51227 -15.701 4.6
      vertex 13.7425 -17.3321 4.6
      vertex 9 -15.749 4.6
    endloop
  endfacet
  facet normal 0 0 1
    outer loop
      vertex 0.487725 -15.701 4.6
      vertex 8.51227 -15.701 4.6
      vertex 8.04329 -15.5587 4.6
    endloop
  endfacet
  facet normal -0 0 1
    outer loop
      vertex 2.5 -13.249 4.6
      vertex 6.54804 -13.7368 4.6
      vertex 6.5 -13.249 4.6
    endloop
  endfacet
  facet normal 0 0 1
    outer loop
      vertex 2.45196 -13.7368 4.6
      vertex 6.54804 -13.7368 4.6
      vertex 2.5 -13.249 4.6
    endloop
  endfacet
  facet normal 0 0 1
    outer loop
      vertex 6.54804 -13.7368 4.6
      vertex 2.45196 -13.7368 4.6
      vertex 6.6903 -14.2057 4.6
    endloop
  endfacet
  facet normal 0 0 1
    outer loop
      vertex 2.3097 -14.2057 4.6
      vertex 6.6903 -14.2057 4.6
      vertex 2.45196 -13.7368 4.6
    endloop
  endfacet
  facet normal 0 0 1
    outer loop
      vertex 6.6903 -14.2057 4.6
      vertex 2.3097 -14.2057 4.6
      vertex 6.92133 -14.638 4.6
    endloop
  endfacet
  facet normal 0 0 1
    outer loop
      vertex 2.07867 -14.638 4.6
      vertex 6.92133 -14.638 4.6
      vertex 2.3097 -14.2057 4.6
    endloop
  endfacet
  facet normal 0 0 1
    outer loop
      vertex 6.92133 -14.638 4.6
      vertex 2.07867 -14.638 4.6
      vertex 7.23223 -15.0168 4.6
    endloop
  endfacet
  facet normal 0 0 1
    outer loop
      vertex 1.76777 -15.0168 4.6
      vertex 7.23223 -15.0168 4.6
      vertex 2.07867 -14.638 4.6
    endloop
  endfacet
  facet normal 0 0 1
    outer loop
      vertex 7.23223 -15.0168 4.6
      vertex 1.76777 -15.0168 4.6
      vertex 7.61107 -15.3277 4.6
    endloop
  endfacet
  facet normal 0 0 1
    outer loop
      vertex 1.38893 -15.3277 4.6
      vertex 7.61107 -15.3277 4.6
      vertex 1.76777 -15.0168 4.6
    endloop
  endfacet
  facet normal 0 0 1
    outer loop
      vertex 7.61107 -15.3277 4.6
      vertex 1.38893 -15.3277 4.6
      vertex 8.04329 -15.5587 4.6
    endloop
  endfacet
  facet normal 0 0 1
    outer loop
      vertex 0.956708 -15.5587 4.6
      vertex 8.04329 -15.5587 4.6
      vertex 1.38893 -15.3277 4.6
    endloop
  endfacet
  facet normal 0 0 1
    outer loop
      vertex 0.487725 -15.701 4.6
      vertex 8.04329 -15.5587 4.6
      vertex 0.956708 -15.5587 4.6
    endloop
  endfacet
  facet normal 0 0 1
    outer loop
      vertex 8.51227 -15.701 4.6
      vertex 0.487725 -15.701 4.6
      vertex 13.7425 -17.3321 4.6
    endloop
  endfacet
  facet normal -0 0 1
    outer loop
      vertex -1.0376e-007 -15.749 4.6
      vertex 13.7425 -17.3321 4.6
      vertex 0.487725 -15.701 4.6
    endloop
  endfacet
  facet normal 0 0 1
    outer loop
      vertex -13.7425 -17.3321 4.6
      vertex -1.0376e-007 -15.749 4.6
      vertex -0.487726 -15.701 4.6
    endloop
  endfacet
  facet normal -0 0 1
    outer loop
      vertex -6.5 -13.249 4.6
      vertex -2.45196 -13.7368 4.6
      vertex -2.5 -13.249 4.6
    endloop
  endfacet
  facet normal 0 0 1
    outer loop
      vertex -6.54804 -13.7368 4.6
      vertex -2.45196 -13.7368 4.6
      vertex -6.5 -13.249 4.6
    endloop
  endfacet
  facet normal 0 0 1
    outer loop
      vertex -2.45196 -13.7368 4.6
      vertex -6.54804 -13.7368 4.6
      vertex -2.3097 -14.2057 4.6
    endloop
  endfacet
  facet normal 0 0 1
    outer loop
      vertex -6.6903 -14.2057 4.6
      vertex -2.3097 -14.2057 4.6
      vertex -6.54804 -13.7368 4.6
    endloop
  endfacet
  facet normal 0 0 1
    outer loop
      vertex -2.3097 -14.2057 4.6
      vertex -6.6903 -14.2057 4.6
      vertex -2.07867 -14.638 4.6
    endloop
  endfacet
  facet normal 0 0 1
    outer loop
      vertex -6.92133 -14.638 4.6
      vertex -2.07867 -14.638 4.6
      vertex -6.6903 -14.2057 4.6
    endloop
  endfacet
  facet normal 0 0 1
    outer loop
      vertex -2.07867 -14.638 4.6
      vertex -6.92133 -14.638 4.6
      vertex -1.76777 -15.0168 4.6
    endloop
  endfacet
  facet normal 0 0 1
    outer loop
      vertex -7.23223 -15.0168 4.6
      vertex -1.76777 -15.0168 4.6
      vertex -6.92133 -14.638 4.6
    endloop
  endfacet
  facet normal 0 0 1
    outer loop
      vertex -1.76777 -15.0168 4.6
      vertex -7.23223 -15.0168 4.6
      vertex -1.38893 -15.3277 4.6
    endloop
  endfacet
  facet normal 0 0 1
    outer loop
      vertex -7.61107 -15.3277 4.6
      vertex -1.38893 -15.3277 4.6
      vertex -7.23223 -15.0168 4.6
    endloop
  endfacet
  facet normal 0 0 1
    outer loop
      vertex -1.38893 -15.3277 4.6
      vertex -7.61107 -15.3277 4.6
      vertex -0.956709 -15.5587 4.6
    endloop
  endfacet
  facet normal 0 0 1
    outer loop
      vertex -8.04329 -15.5587 4.6
      vertex -0.956709 -15.5587 4.6
      vertex -7.61107 -15.3277 4.6
    endloop
  endfacet
  facet normal 0 0 1
    outer loop
      vertex -0.956709 -15.5587 4.6
      vertex -8.04329 -15.5587 4.6
      vertex -0.487726 -15.701 4.6
    endloop
  endfacet
  facet normal 0 0 1
    outer loop
      vertex -8.51227 -15.701 4.6
      vertex -0.487726 -15.701 4.6
      vertex -8.04329 -15.5587 4.6
    endloop
  endfacet
  facet normal 0 0 1
    outer loop
      vertex -13.7425 -17.3321 4.6
      vertex -0.487726 -15.701 4.6
      vertex -8.51227 -15.701 4.6
    endloop
  endfacet
  facet normal 0 0 1
    outer loop
      vertex -13.7425 -17.3321 4.6
      vertex -8.51227 -15.701 4.6
      vertex -9 -15.749 4.6
    endloop
  endfacet
  facet normal 0 0 1
    outer loop
      vertex -13.7425 -17.3321 4.6
      vertex -11.5 -13.249 4.6
      vertex -13.7425 -9.16603 4.6
    endloop
  endfacet
  facet normal 0 0 1
    outer loop
      vertex -11.5 -13.249 4.6
      vertex -13.7425 -17.3321 4.6
      vertex -11.452 -13.7368 4.6
    endloop
  endfacet
  facet normal 0 0 1
    outer loop
      vertex -1.0376e-007 -15.749 4.6
      vertex -13.7425 -17.3321 4.6
      vertex 13.7425 -17.3321 4.6
    endloop
  endfacet
  facet normal 0 0 1
    outer loop
      vertex -9.48773 -15.701 4.6
      vertex -13.7425 -17.3321 4.6
      vertex -9 -15.749 4.6
    endloop
  endfacet
  facet normal 0 0 1
    outer loop
      vertex -9.95671 -15.5587 4.6
      vertex -13.7425 -17.3321 4.6
      vertex -9.48773 -15.701 4.6
    endloop
  endfacet
  facet normal 0 0 1
    outer loop
      vertex -10.3889 -15.3277 4.6
      vertex -13.7425 -17.3321 4.6
      vertex -9.95671 -15.5587 4.6
    endloop
  endfacet
  facet normal 0 0 1
    outer loop
      vertex -10.7678 -15.0168 4.6
      vertex -13.7425 -17.3321 4.6
      vertex -10.3889 -15.3277 4.6
    endloop
  endfacet
  facet normal 0 0 1
    outer loop
      vertex -11.0787 -14.638 4.6
      vertex -13.7425 -17.3321 4.6
      vertex -10.7678 -15.0168 4.6
    endloop
  endfacet
  facet normal 0 0 1
    outer loop
      vertex -11.3097 -14.2057 4.6
      vertex -13.7425 -17.3321 4.6
      vertex -11.0787 -14.638 4.6
    endloop
  endfacet
  facet normal 0 0 1
    outer loop
      vertex -11.452 -13.7368 4.6
      vertex -13.7425 -17.3321 4.6
      vertex -11.3097 -14.2057 4.6
    endloop
  endfacet
  facet normal 0 0 1
    outer loop
      vertex 0.956708 -10.9393 4.6
      vertex -1.0376e-007 -9.16603 4.6
      vertex 0.487725 -10.7971 4.6
    endloop
  endfacet
  facet normal 0 0 1
    outer loop
      vertex -1.0376e-007 -9.16603 4.6
      vertex -1.0376e-007 -10.749 4.6
      vertex 0.487725 -10.7971 4.6
    endloop
  endfacet
  facet normal 0 0 1
    outer loop
      vertex -1.0376e-007 -9.16603 4.6
      vertex -0.487726 -10.7971 4.6
      vertex -1.0376e-007 -10.749 4.6
    endloop
  endfacet
  facet normal 0 0 1
    outer loop
      vertex -1.0376e-007 -9.16603 4.6
      vertex -0.956709 -10.9393 4.6
      vertex -0.487726 -10.7971 4.6
    endloop
  endfacet
  facet normal 0 0 1
    outer loop
      vertex -1.0376e-007 -9.16603 4.6
      vertex -1.38893 -11.1704 4.6
      vertex -0.956709 -10.9393 4.6
    endloop
  endfacet
  facet normal 0 0 1
    outer loop
      vertex -7.61107 -11.1704 4.6
      vertex -1.38893 -11.1704 4.6
      vertex -1.0376e-007 -9.16603 4.6
    endloop
  endfacet
  facet normal 0 0 1
    outer loop
      vertex -1.38893 -11.1704 4.6
      vertex -7.61107 -11.1704 4.6
      vertex -1.76777 -11.4813 4.6
    endloop
  endfacet
  facet normal 0 0 1
    outer loop
      vertex -2.45196 -12.7613 4.6
      vertex -6.5 -13.249 4.6
      vertex -2.5 -13.249 4.6
    endloop
  endfacet
  facet normal 0 0 1
    outer loop
      vertex -6.54804 -12.7613 4.6
      vertex -2.45196 -12.7613 4.6
      vertex -2.3097 -12.2923 4.6
    endloop
  endfacet
  facet normal 0 0 1
    outer loop
      vertex -6.6903 -12.2923 4.6
      vertex -2.3097 -12.2923 4.6
      vertex -2.07867 -11.8601 4.6
    endloop
  endfacet
  facet normal 0 0 1
    outer loop
      vertex -1.76777 -11.4813 4.6
      vertex -7.23223 -11.4813 4.6
      vertex -2.07867 -11.8601 4.6
    endloop
  endfacet
  facet normal 0 0 1
    outer loop
      vertex -2.45196 -12.7613 4.6
      vertex -6.54804 -12.7613 4.6
      vertex -6.5 -13.249 4.6
    endloop
  endfacet
  facet normal 0 0 1
    outer loop
      vertex -2.3097 -12.2923 4.6
      vertex -6.6903 -12.2923 4.6
      vertex -6.54804 -12.7613 4.6
    endloop
  endfacet
  facet normal 0 0 1
    outer loop
      vertex -2.07867 -11.8601 4.6
      vertex -6.92133 -11.8601 4.6
      vertex -6.6903 -12.2923 4.6
    endloop
  endfacet
  facet normal 0 0 1
    outer loop
      vertex -2.07867 -11.8601 4.6
      vertex -7.23223 -11.4813 4.6
      vertex -6.92133 -11.8601 4.6
    endloop
  endfacet
  facet normal 0 0 1
    outer loop
      vertex -1.76777 -11.4813 4.6
      vertex -7.61107 -11.1704 4.6
      vertex -7.23223 -11.4813 4.6
    endloop
  endfacet
  facet normal 0 0 1
    outer loop
      vertex -1.0376e-007 -9.16603 4.6
      vertex -8.04329 -10.9393 4.6
      vertex -7.61107 -11.1704 4.6
    endloop
  endfacet
  facet normal 0 0 1
    outer loop
      vertex -1.0376e-007 -9.16603 4.6
      vertex -8.51227 -10.7971 4.6
      vertex -8.04329 -10.9393 4.6
    endloop
  endfacet
  facet normal -0 0 1
    outer loop
      vertex -13.7425 -9.16603 4.6
      vertex -8.51227 -10.7971 4.6
      vertex -1.0376e-007 -9.16603 4.6
    endloop
  endfacet
  facet normal 0 0 1
    outer loop
      vertex -8.51227 -10.7971 4.6
      vertex -13.7425 -9.16603 4.6
      vertex -9 -10.749 4.6
    endloop
  endfacet
  facet normal 0 0 1
    outer loop
      vertex -11.452 -12.7613 4.6
      vertex -13.7425 -9.16603 4.6
      vertex -11.5 -13.249 4.6
    endloop
  endfacet
  facet normal 0 0 1
    outer loop
      vertex -11.3097 -12.2923 4.6
      vertex -13.7425 -9.16603 4.6
      vertex -11.452 -12.7613 4.6
    endloop
  endfacet
  facet normal 0 0 1
    outer loop
      vertex -11.0787 -11.8601 4.6
      vertex -13.7425 -9.16603 4.6
      vertex -11.3097 -12.2923 4.6
    endloop
  endfacet
  facet normal 0 0 1
    outer loop
      vertex -10.7678 -11.4813 4.6
      vertex -13.7425 -9.16603 4.6
      vertex -11.0787 -11.8601 4.6
    endloop
  endfacet
  facet normal 0 0 1
    outer loop
      vertex -10.3889 -11.1704 4.6
      vertex -13.7425 -9.16603 4.6
      vertex -10.7678 -11.4813 4.6
    endloop
  endfacet
  facet normal 0 0 1
    outer loop
      vertex -9.95671 -10.9393 4.6
      vertex -13.7425 -9.16603 4.6
      vertex -10.3889 -11.1704 4.6
    endloop
  endfacet
  facet normal 0 0 1
    outer loop
      vertex -9.48773 -10.7971 4.6
      vertex -13.7425 -9.16603 4.6
      vertex -9.95671 -10.9393 4.6
    endloop
  endfacet
  facet normal 0 0 1
    outer loop
      vertex -9 -10.749 4.6
      vertex -13.7425 -9.16603 4.6
      vertex -9.48773 -10.7971 4.6
    endloop
  endfacet
  facet normal 1 0 0
    outer loop
      vertex 13.7425 0.166025 4.6
      vertex 13.7425 -8.16603 4.6
      vertex 13.7425 0.166025 2
    endloop
  endfacet
  facet normal 1 -0 0
    outer loop
      vertex 13.7425 0.166025 2
      vertex 13.7425 8.16603 0
      vertex 13.7425 8.16603 2
    endloop
  endfacet
  facet normal 1 0 0
    outer loop
      vertex 13.7425 0.166025 2
      vertex 13.7425 -8.16603 0
      vertex 13.7425 8.16603 0
    endloop
  endfacet
  facet normal 1 0 0
    outer loop
      vertex 13.7425 -8.16603 0
      vertex 13.7425 0.166025 2
      vertex 13.7425 -8.16603 4.6
    endloop
  endfacet
  facet normal 0 1 -0
    outer loop
      vertex 13.7425 8.16603 0
      vertex -13.7425 8.16603 2
      vertex 13.7425 8.16603 2
    endloop
  endfacet
  facet normal 0 1 0
    outer loop
      vertex -13.7425 8.16603 2
      vertex 13.7425 8.16603 0
      vertex -13.7425 8.16603 0
    endloop
  endfacet
  facet normal 0 0 -1
    outer loop
      vertex -1.0376e-007 -8.16603 0
      vertex -8.13328 -3.07407 0
      vertex -7.08833 -1.76374 0
    endloop
  endfacet
  facet normal 0 0 -1
    outer loop
      vertex -13.7425 -8.16603 0
      vertex -8.13328 -3.07407 0
      vertex -1.0376e-007 -8.16603 0
    endloop
  endfacet
  facet normal -0 0 -1
    outer loop
      vertex -9.80925 -3.07407 0
      vertex -13.7425 -8.16603 0
      vertex -10.8542 -1.76374 0
    endloop
  endfacet
  facet normal -0 0 -1
    outer loop
      vertex -8.13328 -3.07407 0
      vertex -13.7425 -8.16603 0
      vertex -9.80925 -3.07407 0
    endloop
  endfacet
  facet normal 0 0 -1
    outer loop
      vertex -0.487726 -10.7971 0
      vertex -1.0376e-007 -9.16603 0
      vertex -1.0376e-007 -10.749 0
    endloop
  endfacet
  facet normal 0 0 -1
    outer loop
      vertex -0.956709 -10.9393 0
      vertex -1.0376e-007 -9.16603 0
      vertex -0.487726 -10.7971 0
    endloop
  endfacet
  facet normal 0 0 -1
    outer loop
      vertex -1.38893 -11.1704 0
      vertex -1.0376e-007 -9.16603 0
      vertex -0.956709 -10.9393 0
    endloop
  endfacet
  facet normal 0 0 -1
    outer loop
      vertex -7.61107 -11.1704 0
      vertex -1.38893 -11.1704 0
      vertex -1.76777 -11.4813 0
    endloop
  endfacet
  facet normal 0 0 -1
    outer loop
      vertex -7.23223 -11.4813 0
      vertex -1.76777 -11.4813 0
      vertex -2.07867 -11.8601 0
    endloop
  endfacet
  facet normal 0 0 -1
    outer loop
      vertex -6.5 -13.249 0
      vertex -2.45196 -12.7613 0
      vertex -2.5 -13.249 0
    endloop
  endfacet
  facet normal 0 0 -1
    outer loop
      vertex -6.54804 -12.7613 0
      vertex -2.45196 -12.7613 0
      vertex -6.5 -13.249 0
    endloop
  endfacet
  facet normal 0 0 -1
    outer loop
      vertex -2.45196 -12.7613 0
      vertex -6.54804 -12.7613 0
      vertex -2.3097 -12.2923 0
    endloop
  endfacet
  facet normal 0 0 -1
    outer loop
      vertex -6.6903 -12.2923 0
      vertex -2.3097 -12.2923 0
      vertex -6.54804 -12.7613 0
    endloop
  endfacet
  facet normal 0 0 -1
    outer loop
      vertex -2.3097 -12.2923 0
      vertex -6.6903 -12.2923 0
      vertex -2.07867 -11.8601 0
    endloop
  endfacet
  facet normal 0 0 -1
    outer loop
      vertex -6.92133 -11.8601 0
      vertex -2.07867 -11.8601 0
      vertex -6.6903 -12.2923 0
    endloop
  endfacet
  facet normal 0 0 -1
    outer loop
      vertex -7.23223 -11.4813 0
      vertex -2.07867 -11.8601 0
      vertex -6.92133 -11.8601 0
    endloop
  endfacet
  facet normal 0 0 -1
    outer loop
      vertex -7.61107 -11.1704 0
      vertex -1.76777 -11.4813 0
      vertex -7.23223 -11.4813 0
    endloop
  endfacet
  facet normal 0 0 -1
    outer loop
      vertex -1.38893 -11.1704 0
      vertex -7.61107 -11.1704 0
      vertex -1.0376e-007 -9.16603 0
    endloop
  endfacet
  facet normal 0 0 -1
    outer loop
      vertex -8.04329 -10.9393 0
      vertex -1.0376e-007 -9.16603 0
      vertex -7.61107 -11.1704 0
    endloop
  endfacet
  facet normal 0 0 -1
    outer loop
      vertex -8.51227 -10.7971 0
      vertex -1.0376e-007 -9.16603 0
      vertex -8.04329 -10.9393 0
    endloop
  endfacet
  facet normal 0 0 -1
    outer loop
      vertex -13.7425 -9.16603 0
      vertex -8.51227 -10.7971 0
      vertex -9 -10.749 0
    endloop
  endfacet
  facet normal 0 0 -1
    outer loop
      vertex -13.7425 -9.16603 0
      vertex -9 -10.749 0
      vertex -9.48773 -10.7971 0
    endloop
  endfacet
  facet normal 0 0 -1
    outer loop
      vertex -13.7425 -9.16603 0
      vertex -11.5 -13.249 0
      vertex -13.7425 -17.3321 0
    endloop
  endfacet
  facet normal 0 0 -1
    outer loop
      vertex -11.5 -13.249 0
      vertex -13.7425 -9.16603 0
      vertex -11.452 -12.7613 0
    endloop
  endfacet
  facet normal 0 0 -1
    outer loop
      vertex -8.51227 -10.7971 0
      vertex -13.7425 -9.16603 0
      vertex -1.0376e-007 -9.16603 0
    endloop
  endfacet
  facet normal 0 0 -1
    outer loop
      vertex -9.95671 -10.9393 0
      vertex -13.7425 -9.16603 0
      vertex -9.48773 -10.7971 0
    endloop
  endfacet
  facet normal 0 0 -1
    outer loop
      vertex -10.3889 -11.1704 0
      vertex -13.7425 -9.16603 0
      vertex -9.95671 -10.9393 0
    endloop
  endfacet
  facet normal 0 0 -1
    outer loop
      vertex -10.7678 -11.4813 0
      vertex -13.7425 -9.16603 0
      vertex -10.3889 -11.1704 0
    endloop
  endfacet
  facet normal 0 0 -1
    outer loop
      vertex -11.0787 -11.8601 0
      vertex -13.7425 -9.16603 0
      vertex -10.7678 -11.4813 0
    endloop
  endfacet
  facet normal 0 0 -1
    outer loop
      vertex -11.3097 -12.2923 0
      vertex -13.7425 -9.16603 0
      vertex -11.0787 -11.8601 0
    endloop
  endfacet
  facet normal 0 0 -1
    outer loop
      vertex -11.452 -12.7613 0
      vertex -13.7425 -9.16603 0
      vertex -11.3097 -12.2923 0
    endloop
  endfacet
  facet normal 0 0 -1
    outer loop
      vertex 10.3889 -11.1704 0
      vertex 13.7425 -8.16603 0
      vertex 10.7678 -11.4813 0
    endloop
  endfacet
  facet normal 0 0 -1
    outer loop
      vertex 9.95671 -10.9393 0
      vertex 13.7425 -8.16603 0
      vertex 10.3889 -11.1704 0
    endloop
  endfacet
  facet normal 0 0 -1
    outer loop
      vertex 9.48773 -10.7971 0
      vertex 13.7425 -8.16603 0
      vertex 9.95671 -10.9393 0
    endloop
  endfacet
  facet normal 0 0 -1
    outer loop
      vertex 13.7425 -8.16603 0
      vertex 9.80925 -3.07407 0
      vertex 10.8542 -1.76374 0
    endloop
  endfacet
  facet normal -0 0 -1
    outer loop
      vertex 13.7425 -8.16603 0
      vertex 9.48773 -10.7971 0
      vertex 9.80925 -3.07407 0
    endloop
  endfacet
  facet normal 0 0 -1
    outer loop
      vertex 9 -10.749 0
      vertex 9.80925 -3.07407 0
      vertex 9.48773 -10.7971 0
    endloop
  endfacet
  facet normal 0 0 -1
    outer loop
      vertex 8.13328 -3.07407 0
      vertex 9 -10.749 0
      vertex 8.51227 -10.7971 0
    endloop
  endfacet
  facet normal 0 0 -1
    outer loop
      vertex 9 -10.749 0
      vertex 8.13328 -3.07407 0
      vertex 9.80925 -3.07407 0
    endloop
  endfacet
  facet normal 0 0 -1
    outer loop
      vertex 8.04329 -10.9393 0
      vertex 8.13328 -3.07407 0
      vertex 8.51227 -10.7971 0
    endloop
  endfacet
  facet normal 0 0 -1
    outer loop
      vertex 7.61107 -11.1704 0
      vertex 8.13328 -3.07407 0
      vertex 8.04329 -10.9393 0
    endloop
  endfacet
  facet normal 0 0 -1
    outer loop
      vertex -1.0376e-007 -8.16603 0
      vertex 7.61107 -11.1704 0
      vertex 7.23223 -11.4813 0
    endloop
  endfacet
  facet normal 0 0 -1
    outer loop
      vertex 7.61107 -11.1704 0
      vertex -1.0376e-007 -8.16603 0
      vertex 8.13328 -3.07407 0
    endloop
  endfacet
  facet normal 0 0 -1
    outer loop
      vertex 1.76777 -11.4813 0
      vertex 7.23223 -11.4813 0
      vertex 6.92133 -11.8601 0
    endloop
  endfacet
  facet normal 0 0 -1
    outer loop
      vertex 11.5 -13.249 0
      vertex 13.7425 -8.16603 0
      vertex 13.7425 -17.3321 0
    endloop
  endfacet
  facet normal 0 0 -1
    outer loop
      vertex 13.7425 -8.16603 0
      vertex 11.5 -13.249 0
      vertex 11.452 -12.7613 0
    endloop
  endfacet
  facet normal 0 0 -1
    outer loop
      vertex 13.7425 -17.3321 0
      vertex 11.452 -13.7368 0
      vertex 11.5 -13.249 0
    endloop
  endfacet
  facet normal 0 0 -1
    outer loop
      vertex 13.7425 -17.3321 0
      vertex 11.3097 -14.2057 0
      vertex 11.452 -13.7368 0
    endloop
  endfacet
  facet normal 0 0 -1
    outer loop
      vertex 13.7425 -17.3321 0
      vertex 11.0787 -14.638 0
      vertex 11.3097 -14.2057 0
    endloop
  endfacet
  facet normal 0 0 -1
    outer loop
      vertex 13.7425 -17.3321 0
      vertex 10.7678 -15.0168 0
      vertex 11.0787 -14.638 0
    endloop
  endfacet
  facet normal 0 0 -1
    outer loop
      vertex 13.7425 -17.3321 0
      vertex 10.3889 -15.3277 0
      vertex 10.7678 -15.0168 0
    endloop
  endfacet
  facet normal 0 0 -1
    outer loop
      vertex 13.7425 -17.3321 0
      vertex 9.95671 -15.5587 0
      vertex 10.3889 -15.3277 0
    endloop
  endfacet
  facet normal 0 0 -1
    outer loop
      vertex 13.7425 -17.3321 0
      vertex 9.48773 -15.701 0
      vertex 9.95671 -15.5587 0
    endloop
  endfacet
  facet normal 0 0 -1
    outer loop
      vertex 13.7425 -17.3321 0
      vertex 9 -15.749 0
      vertex 9.48773 -15.701 0
    endloop
  endfacet
  facet normal 0 0 -1
    outer loop
      vertex 13.7425 -17.3321 0
      vertex 8.51227 -15.701 0
      vertex 9 -15.749 0
    endloop
  endfacet
  facet normal 0 0 -1
    outer loop
      vertex 0.487725 -15.701 0
      vertex 8.51227 -15.701 0
      vertex 13.7425 -17.3321 0
    endloop
  endfacet
  facet normal 0 0 -1
    outer loop
      vertex 6.54804 -13.7368 0
      vertex 2.5 -13.249 0
      vertex 6.5 -13.249 0
    endloop
  endfacet
  facet normal 0 0 -1
    outer loop
      vertex 2.45196 -13.7368 0
      vertex 6.54804 -13.7368 0
      vertex 6.6903 -14.2057 0
    endloop
  endfacet
  facet normal 0 0 -1
    outer loop
      vertex 2.3097 -14.2057 0
      vertex 6.6903 -14.2057 0
      vertex 6.92133 -14.638 0
    endloop
  endfacet
  facet normal 0 0 -1
    outer loop
      vertex 2.07867 -14.638 0
      vertex 6.92133 -14.638 0
      vertex 7.23223 -15.0168 0
    endloop
  endfacet
  facet normal 0 0 -1
    outer loop
      vertex 1.76777 -15.0168 0
      vertex 7.23223 -15.0168 0
      vertex 7.61107 -15.3277 0
    endloop
  endfacet
  facet normal 0 0 -1
    outer loop
      vertex 1.38893 -15.3277 0
      vertex 7.61107 -15.3277 0
      vertex 8.04329 -15.5587 0
    endloop
  endfacet
  facet normal 0 0 -1
    outer loop
      vertex 6.54804 -13.7368 0
      vertex 2.45196 -13.7368 0
      vertex 2.5 -13.249 0
    endloop
  endfacet
  facet normal 0 0 -1
    outer loop
      vertex 6.6903 -14.2057 0
      vertex 2.3097 -14.2057 0
      vertex 2.45196 -13.7368 0
    endloop
  endfacet
  facet normal 0 0 -1
    outer loop
      vertex 8.51227 -15.701 0
      vertex 0.487725 -15.701 0
      vertex 8.04329 -15.5587 0
    endloop
  endfacet
  facet normal 0 0 -1
    outer loop
      vertex 6.92133 -14.638 0
      vertex 2.07867 -14.638 0
      vertex 2.3097 -14.2057 0
    endloop
  endfacet
  facet normal 0 0 -1
    outer loop
      vertex 7.23223 -15.0168 0
      vertex 1.76777 -15.0168 0
      vertex 2.07867 -14.638 0
    endloop
  endfacet
  facet normal 0 0 -1
    outer loop
      vertex 7.61107 -15.3277 0
      vertex 1.38893 -15.3277 0
      vertex 1.76777 -15.0168 0
    endloop
  endfacet
  facet normal 0 0 -1
    outer loop
      vertex 8.04329 -15.5587 0
      vertex 0.956708 -15.5587 0
      vertex 1.38893 -15.3277 0
    endloop
  endfacet
  facet normal -0 0 -1
    outer loop
      vertex 8.04329 -15.5587 0
      vertex 0.487725 -15.701 0
      vertex 0.956708 -15.5587 0
    endloop
  endfacet
  facet normal 0 0 -1
    outer loop
      vertex 13.7425 -17.3321 0
      vertex -1.0376e-007 -15.749 0
      vertex 0.487725 -15.701 0
    endloop
  endfacet
  facet normal 0 0 -1
    outer loop
      vertex -13.7425 -17.3321 0
      vertex -1.0376e-007 -15.749 0
      vertex 13.7425 -17.3321 0
    endloop
  endfacet
  facet normal 0 0 -1
    outer loop
      vertex -2.45196 -13.7368 0
      vertex -6.5 -13.249 0
      vertex -2.5 -13.249 0
    endloop
  endfacet
  facet normal 0 0 -1
    outer loop
      vertex -6.54804 -13.7368 0
      vertex -2.45196 -13.7368 0
      vertex -2.3097 -14.2057 0
    endloop
  endfacet
  facet normal 0 0 -1
    outer loop
      vertex -6.6903 -14.2057 0
      vertex -2.3097 -14.2057 0
      vertex -2.07867 -14.638 0
    endloop
  endfacet
  facet normal 0 0 -1
    outer loop
      vertex -6.92133 -14.638 0
      vertex -2.07867 -14.638 0
      vertex -1.76777 -15.0168 0
    endloop
  endfacet
  facet normal 0 0 -1
    outer loop
      vertex -7.23223 -15.0168 0
      vertex -1.76777 -15.0168 0
      vertex -1.38893 -15.3277 0
    endloop
  endfacet
  facet normal 0 0 -1
    outer loop
      vertex -7.61107 -15.3277 0
      vertex -1.38893 -15.3277 0
      vertex -0.956709 -15.5587 0
    endloop
  endfacet
  facet normal 0 0 -1
    outer loop
      vertex -2.45196 -13.7368 0
      vertex -6.54804 -13.7368 0
      vertex -6.5 -13.249 0
    endloop
  endfacet
  facet normal 0 0 -1
    outer loop
      vertex -2.3097 -14.2057 0
      vertex -6.6903 -14.2057 0
      vertex -6.54804 -13.7368 0
    endloop
  endfacet
  facet normal 0 0 -1
    outer loop
      vertex -8.04329 -15.5587 0
      vertex -0.956709 -15.5587 0
      vertex -0.487726 -15.701 0
    endloop
  endfacet
  facet normal 0 0 -1
    outer loop
      vertex -2.07867 -14.638 0
      vertex -6.92133 -14.638 0
      vertex -6.6903 -14.2057 0
    endloop
  endfacet
  facet normal 0 0 -1
    outer loop
      vertex -1.76777 -15.0168 0
      vertex -7.23223 -15.0168 0
      vertex -6.92133 -14.638 0
    endloop
  endfacet
  facet normal -0 0 -1
    outer loop
      vertex -1.0376e-007 -15.749 0
      vertex -13.7425 -17.3321 0
      vertex -0.487726 -15.701 0
    endloop
  endfacet
  facet normal 0 0 -1
    outer loop
      vertex -1.38893 -15.3277 0
      vertex -7.61107 -15.3277 0
      vertex -7.23223 -15.0168 0
    endloop
  endfacet
  facet normal 0 0 -1
    outer loop
      vertex -0.956709 -15.5587 0
      vertex -8.04329 -15.5587 0
      vertex -7.61107 -15.3277 0
    endloop
  endfacet
  facet normal 0 0 -1
    outer loop
      vertex -0.487726 -15.701 0
      vertex -8.51227 -15.701 0
      vertex -8.04329 -15.5587 0
    endloop
  endfacet
  facet normal -0 0 -1
    outer loop
      vertex -0.487726 -15.701 0
      vertex -13.7425 -17.3321 0
      vertex -8.51227 -15.701 0
    endloop
  endfacet
  facet normal -0 0 -1
    outer loop
      vertex -11.452 -13.7368 0
      vertex -13.7425 -17.3321 0
      vertex -11.5 -13.249 0
    endloop
  endfacet
  facet normal -0 0 -1
    outer loop
      vertex -11.3097 -14.2057 0
      vertex -13.7425 -17.3321 0
      vertex -11.452 -13.7368 0
    endloop
  endfacet
  facet normal -0 0 -1
    outer loop
      vertex -11.0787 -14.638 0
      vertex -13.7425 -17.3321 0
      vertex -11.3097 -14.2057 0
    endloop
  endfacet
  facet normal -0 0 -1
    outer loop
      vertex -10.7678 -15.0168 0
      vertex -13.7425 -17.3321 0
      vertex -11.0787 -14.638 0
    endloop
  endfacet
  facet normal -0 0 -1
    outer loop
      vertex -10.3889 -15.3277 0
      vertex -13.7425 -17.3321 0
      vertex -10.7678 -15.0168 0
    endloop
  endfacet
  facet normal -0 0 -1
    outer loop
      vertex -9.95671 -15.5587 0
      vertex -13.7425 -17.3321 0
      vertex -10.3889 -15.3277 0
    endloop
  endfacet
  facet normal -0 0 -1
    outer loop
      vertex -9.48773 -15.701 0
      vertex -13.7425 -17.3321 0
      vertex -9.95671 -15.5587 0
    endloop
  endfacet
  facet normal -0 0 -1
    outer loop
      vertex -9 -15.749 0
      vertex -13.7425 -17.3321 0
      vertex -9.48773 -15.701 0
    endloop
  endfacet
  facet normal 0 0 -1
    outer loop
      vertex -8.51227 -15.701 0
      vertex -13.7425 -17.3321 0
      vertex -9 -15.749 0
    endloop
  endfacet
  facet normal 0 0 -1
    outer loop
      vertex 13.7425 -8.16603 0
      vertex 11.452 -12.7613 0
      vertex 11.3097 -12.2923 0
    endloop
  endfacet
  facet normal 0 0 -1
    outer loop
      vertex 11.0787 -11.8601 0
      vertex 13.7425 -8.16603 0
      vertex 11.3097 -12.2923 0
    endloop
  endfacet
  facet normal 0 0 -1
    outer loop
      vertex 10.7678 -11.4813 0
      vertex 13.7425 -8.16603 0
      vertex 11.0787 -11.8601 0
    endloop
  endfacet
  facet normal 0 0 -1
    outer loop
      vertex 13.7425 -8.16603 0
      vertex 10.8542 -1.76374 0
      vertex 13.7425 8.16603 0
    endloop
  endfacet
  facet normal 0 0 -1
    outer loop
      vertex 10.4813 -0.129789 0
      vertex 13.7425 8.16603 0
      vertex 10.8542 -1.76374 0
    endloop
  endfacet
  facet normal 0 0 -1
    outer loop
      vertex 8.97127 0.597386 0
      vertex 13.7425 8.16603 0
      vertex 10.4813 -0.129789 0
    endloop
  endfacet
  facet normal 0 0 -1
    outer loop
      vertex 7.46127 -0.129789 0
      vertex 13.7425 8.16603 0
      vertex 8.97127 0.597386 0
    endloop
  endfacet
  facet normal 0 0 -1
    outer loop
      vertex 2.07867 -11.8601 0
      vertex 6.92133 -11.8601 0
      vertex 6.6903 -12.2923 0
    endloop
  endfacet
  facet normal 0 0 -1
    outer loop
      vertex 2.3097 -12.2923 0
      vertex 6.6903 -12.2923 0
      vertex 6.54804 -12.7613 0
    endloop
  endfacet
  facet normal 0 0 -1
    outer loop
      vertex 2.45196 -12.7613 0
      vertex 6.54804 -12.7613 0
      vertex 6.5 -13.249 0
    endloop
  endfacet
  facet normal 0 0 -1
    outer loop
      vertex 2.45196 -12.7613 0
      vertex 6.5 -13.249 0
      vertex 2.5 -13.249 0
    endloop
  endfacet
  facet normal 0 0 -1
    outer loop
      vertex 6.54804 -12.7613 0
      vertex 2.45196 -12.7613 0
      vertex 2.3097 -12.2923 0
    endloop
  endfacet
  facet normal 0 0 -1
    outer loop
      vertex 6.6903 -12.2923 0
      vertex 2.3097 -12.2923 0
      vertex 2.07867 -11.8601 0
    endloop
  endfacet
  facet normal 0 0 -1
    outer loop
      vertex 6.92133 -11.8601 0
      vertex 2.07867 -11.8601 0
      vertex 1.76777 -11.4813 0
    endloop
  endfacet
  facet normal 0 0 -1
    outer loop
      vertex 7.23223 -11.4813 0
      vertex 1.76777 -11.4813 0
      vertex -1.0376e-007 -8.16603 0
    endloop
  endfacet
  facet normal -0 0 -1
    outer loop
      vertex 8.13328 -3.07407 0
      vertex -1.0376e-007 -8.16603 0
      vertex 7.08833 -1.76374 0
    endloop
  endfacet
  facet normal 0 0 -1
    outer loop
      vertex -1.0376e-007 -8.16603 0
      vertex 1.76777 -11.4813 0
      vertex 1.38893 -11.1704 0
    endloop
  endfacet
  facet normal 0 0 -1
    outer loop
      vertex -1.0376e-007 -9.16603 0
      vertex 1.38893 -11.1704 0
      vertex 0.956708 -10.9393 0
    endloop
  endfacet
  facet normal 0 0 -1
    outer loop
      vertex -1.0376e-007 -9.16603 0
      vertex 0.956708 -10.9393 0
      vertex 0.487725 -10.7971 0
    endloop
  endfacet
  facet normal 0 0 -1
    outer loop
      vertex -1.0376e-007 -9.16603 0
      vertex 0.487725 -10.7971 0
      vertex -1.0376e-007 -10.749 0
    endloop
  endfacet
  facet normal 0 0 -1
    outer loop
      vertex 1.38893 -11.1704 0
      vertex -1.0376e-007 -9.16603 0
      vertex -1.0376e-007 -8.16603 0
    endloop
  endfacet
  facet normal 0 0 -1
    outer loop
      vertex -7.08833 -1.76374 0
      vertex 7.08833 -1.76374 0
      vertex -1.0376e-007 -8.16603 0
    endloop
  endfacet
  facet normal 0 0 -1
    outer loop
      vertex 7.08833 -1.76374 0
      vertex -7.08833 -1.76374 0
      vertex 7.46127 -0.129789 0
    endloop
  endfacet
  facet normal -0 0 -1
    outer loop
      vertex 7.46127 -0.129789 0
      vertex -7.08833 -1.76374 0
      vertex -7.46127 -0.129789 0
    endloop
  endfacet
  facet normal 0 0 -1
    outer loop
      vertex 7.46127 -0.129789 0
      vertex -7.46127 -0.129789 0
      vertex 13.7425 8.16603 0
    endloop
  endfacet
  facet normal 0 0 -1
    outer loop
      vertex -13.7425 8.16603 0
      vertex -7.46127 -0.129789 0
      vertex -8.97127 0.597386 0
    endloop
  endfacet
  facet normal 0 0 -1
    outer loop
      vertex -13.7425 8.16603 0
      vertex -10.8542 -1.76374 0
      vertex -13.7425 -8.16603 0
    endloop
  endfacet
  facet normal 0 0 -1
    outer loop
      vertex -7.46127 -0.129789 0
      vertex -13.7425 8.16603 0
      vertex 13.7425 8.16603 0
    endloop
  endfacet
  facet normal 0 0 -1
    outer loop
      vertex -10.4813 -0.129789 0
      vertex -13.7425 8.16603 0
      vertex -8.97127 0.597386 0
    endloop
  endfacet
  facet normal 0 0 -1
    outer loop
      vertex -10.8542 -1.76374 0
      vertex -13.7425 8.16603 0
      vertex -10.4813 -0.129789 0
    endloop
  endfacet
  facet normal 0 -1 0
    outer loop
      vertex -13.7425 -8.16603 0
      vertex -1.0376e-007 -8.16603 4.6
      vertex -13.7425 -8.16603 4.6
    endloop
  endfacet
  facet normal 0 -1 -0
    outer loop
      vertex -1.0376e-007 -8.16603 4.6
      vertex -13.7425 -8.16603 0
      vertex -1.0376e-007 -8.16603 0
    endloop
  endfacet
  facet normal 1 -0 0
    outer loop
      vertex -11.7425 -3.16603 4.6
      vertex -11.7425 0.166025 2
      vertex -11.7425 0.166025 4.6
    endloop
  endfacet
  facet normal 1 0 0
    outer loop
      vertex -11.7425 0.166025 2
      vertex -11.7425 -3.16603 4.6
      vertex -11.7425 -3.16603 2
    endloop
  endfacet
  facet normal -1 0 0
    outer loop
      vertex 11.7425 -3.16603 2
      vertex 11.7425 0.166025 4.6
      vertex 11.7425 0.166025 2
    endloop
  endfacet
  facet normal -1 -0 0
    outer loop
      vertex 11.7425 0.166025 4.6
      vertex 11.7425 -3.16603 2
      vertex 11.7425 -3.16603 4.6
    endloop
  endfacet
  facet normal 0 0 1
    outer loop
      vertex 13.7425 8.16603 2
      vertex 11.7425 0.166025 2
      vertex 13.7425 0.166025 2
    endloop
  endfacet
  facet normal 0 0 1
    outer loop
      vertex 11.7425 0.166025 2
      vertex 10.8542 -1.76374 2
      vertex 11.7425 -3.16603 2
    endloop
  endfacet
  facet normal -0 0 1
    outer loop
      vertex 8.97127 0.597386 2
      vertex 11.7425 0.166025 2
      vertex 13.7425 8.16603 2
    endloop
  endfacet
  facet normal 0 0 1
    outer loop
      vertex 11.7425 0.166025 2
      vertex 10.4813 -0.129789 2
      vertex 10.8542 -1.76374 2
    endloop
  endfacet
  facet normal 0 0 1
    outer loop
      vertex 11.7425 0.166025 2
      vertex 8.97127 0.597386 2
      vertex 10.4813 -0.129789 2
    endloop
  endfacet
  facet normal 0 0 1
    outer loop
      vertex 13.7425 8.16603 2
      vertex 7.46127 -0.129789 2
      vertex 8.97127 0.597386 2
    endloop
  endfacet
  facet normal 0 0 1
    outer loop
      vertex 7.46127 -0.129789 2
      vertex -7.08833 -1.76374 2
      vertex 7.08833 -1.76374 2
    endloop
  endfacet
  facet normal 0 0 1
    outer loop
      vertex -7.46127 -0.129789 2
      vertex 7.46127 -0.129789 2
      vertex 13.7425 8.16603 2
    endloop
  endfacet
  facet normal 0 0 1
    outer loop
      vertex 7.46127 -0.129789 2
      vertex -7.46127 -0.129789 2
      vertex -7.08833 -1.76374 2
    endloop
  endfacet
  facet normal -0 0 1
    outer loop
      vertex -13.7425 8.16603 2
      vertex -7.46127 -0.129789 2
      vertex 13.7425 8.16603 2
    endloop
  endfacet
  facet normal 0 0 1
    outer loop
      vertex -10.4813 -0.129789 2
      vertex -11.7425 0.166025 2
      vertex -10.8542 -1.76374 2
    endloop
  endfacet
  facet normal 0 0 1
    outer loop
      vertex -8.97127 0.597386 2
      vertex -11.7425 0.166025 2
      vertex -10.4813 -0.129789 2
    endloop
  endfacet
  facet normal 0 0 1
    outer loop
      vertex -7.46127 -0.129789 2
      vertex -13.7425 8.16603 2
      vertex -8.97127 0.597386 2
    endloop
  endfacet
  facet normal 0 0 1
    outer loop
      vertex -8.97127 0.597386 2
      vertex -13.7425 8.16603 2
      vertex -11.7425 0.166025 2
    endloop
  endfacet
  facet normal 0 0 1
    outer loop
      vertex -11.7425 0.166025 2
      vertex -13.7425 8.16603 2
      vertex -13.7425 0.166025 2
    endloop
  endfacet
  facet normal -0 0 1
    outer loop
      vertex 9.80925 -3.07407 2
      vertex 11.7425 -3.16603 2
      vertex 10.8542 -1.76374 2
    endloop
  endfacet
  facet normal -0 0 1
    outer loop
      vertex 8.13328 -3.07407 2
      vertex 11.7425 -3.16603 2
      vertex 9.80925 -3.07407 2
    endloop
  endfacet
  facet normal -0 0 1
    outer loop
      vertex -7.08833 -1.76374 2
      vertex 8.13328 -3.07407 2
      vertex 7.08833 -1.76374 2
    endloop
  endfacet
  facet normal 0 0 1
    outer loop
      vertex -8.13328 -3.07407 2
      vertex 8.13328 -3.07407 2
      vertex -7.08833 -1.76374 2
    endloop
  endfacet
  facet normal -0 0 1
    outer loop
      vertex -8.13328 -3.07407 2
      vertex 11.7425 -3.16603 2
      vertex 8.13328 -3.07407 2
    endloop
  endfacet
  facet normal 0 0 1
    outer loop
      vertex -11.7425 -3.16603 2
      vertex -8.13328 -3.07407 2
      vertex -9.80925 -3.07407 2
    endloop
  endfacet
  facet normal 0 0 1
    outer loop
      vertex -8.13328 -3.07407 2
      vertex -11.7425 -3.16603 2
      vertex 11.7425 -3.16603 2
    endloop
  endfacet
  facet normal 0 0 1
    outer loop
      vertex -10.8542 -1.76374 2
      vertex -11.7425 -3.16603 2
      vertex -9.80925 -3.07407 2
    endloop
  endfacet
  facet normal 0 0 1
    outer loop
      vertex -11.7425 -3.16603 2
      vertex -10.8542 -1.76374 2
      vertex -11.7425 0.166025 2
    endloop
  endfacet
  facet normal 0 1 -0
    outer loop
      vertex 11.7425 -3.16603 2
      vertex -11.7425 -3.16603 4.6
      vertex 11.7425 -3.16603 4.6
    endloop
  endfacet
  facet normal 0 1 0
    outer loop
      vertex -11.7425 -3.16603 4.6
      vertex 11.7425 -3.16603 2
      vertex -11.7425 -3.16603 2
    endloop
  endfacet
  facet normal 0 1 -0
    outer loop
      vertex -11.7425 0.166025 2
      vertex -13.7425 0.166025 4.6
      vertex -11.7425 0.166025 4.6
    endloop
  endfacet
  facet normal 0 1 0
    outer loop
      vertex -13.7425 0.166025 4.6
      vertex -11.7425 0.166025 2
      vertex -13.7425 0.166025 2
    endloop
  endfacet
  facet normal 0 1 -0
    outer loop
      vertex 13.7425 0.166025 2
      vertex 11.7425 0.166025 4.6
      vertex 13.7425 0.166025 4.6
    endloop
  endfacet
  facet normal 0 1 0
    outer loop
      vertex 11.7425 0.166025 4.6
      vertex 13.7425 0.166025 2
      vertex 11.7425 0.166025 2
    endloop
  endfacet
  facet normal -1 0 0
    outer loop
      vertex -1.0376e-007 -9.16603 0
      vertex -1.0376e-007 -8.16603 4.6
      vertex -1.0376e-007 -8.16603 0
    endloop
  endfacet
  facet normal -1 -0 0
    outer loop
      vertex -1.0376e-007 -8.16603 4.6
      vertex -1.0376e-007 -9.16603 0
      vertex -1.0376e-007 -9.16603 4.6
    endloop
  endfacet
  facet normal 1 -0 0
    outer loop
      vertex 13.7425 -17.3321 4.6
      vertex 13.7425 -8.16603 0
      vertex 13.7425 -8.16603 4.6
    endloop
  endfacet
  facet normal 1 0 0
    outer loop
      vertex 13.7425 -8.16603 0
      vertex 13.7425 -17.3321 4.6
      vertex 13.7425 -17.3321 0
    endloop
  endfacet
  facet normal -1 0 0
    outer loop
      vertex -13.7425 -17.3321 0
      vertex -13.7425 -9.16603 4.6
      vertex -13.7425 -9.16603 0
    endloop
  endfacet
  facet normal -1 -0 0
    outer loop
      vertex -13.7425 -9.16603 4.6
      vertex -13.7425 -17.3321 0
      vertex -13.7425 -17.3321 4.6
    endloop
  endfacet
  facet normal 0 1 -0
    outer loop
      vertex -1.0376e-007 -9.16603 0
      vertex -13.7425 -9.16603 4.6
      vertex -1.0376e-007 -9.16603 4.6
    endloop
  endfacet
  facet normal 0 1 0
    outer loop
      vertex -13.7425 -9.16603 4.6
      vertex -1.0376e-007 -9.16603 0
      vertex -13.7425 -9.16603 0
    endloop
  endfacet
  facet normal 0 -1 0
    outer loop
      vertex -13.7425 -17.3321 0
      vertex 13.7425 -17.3321 4.6
      vertex -13.7425 -17.3321 4.6
    endloop
  endfacet
  facet normal 0 -1 -0
    outer loop
      vertex 13.7425 -17.3321 4.6
      vertex -13.7425 -17.3321 0
      vertex 13.7425 -17.3321 0
    endloop
  endfacet
  facet normal -0.471396 -0.881922 0
    outer loop
      vertex -8.04329 -10.9393 0
      vertex -7.61107 -11.1704 4.6
      vertex -8.04329 -10.9393 4.6
    endloop
  endfacet
  facet normal -0.471396 -0.881922 -0
    outer loop
      vertex -7.61107 -11.1704 4.6
      vertex -8.04329 -10.9393 0
      vertex -7.61107 -11.1704 0
    endloop
  endfacet
  facet normal 0.995185 -0.0980168 0
    outer loop
      vertex -11.5 -13.249 4.6
      vertex -11.452 -12.7613 0
      vertex -11.452 -12.7613 4.6
    endloop
  endfacet
  facet normal 0.995185 -0.0980168 0
    outer loop
      vertex -11.452 -12.7613 0
      vertex -11.5 -13.249 4.6
      vertex -11.5 -13.249 0
    endloop
  endfacet
  facet normal -0.995185 0.0980185 0
    outer loop
      vertex -6.54804 -13.7368 0
      vertex -6.5 -13.249 4.6
      vertex -6.5 -13.249 0
    endloop
  endfacet
  facet normal -0.995185 0.0980185 0
    outer loop
      vertex -6.5 -13.249 4.6
      vertex -6.54804 -13.7368 0
      vertex -6.54804 -13.7368 4.6
    endloop
  endfacet
  facet normal 0.0980166 0.995185 -0
    outer loop
      vertex -9 -15.749 0
      vertex -9.48773 -15.701 4.6
      vertex -9 -15.749 4.6
    endloop
  endfacet
  facet normal 0.0980166 0.995185 0
    outer loop
      vertex -9.48773 -15.701 4.6
      vertex -9 -15.749 0
      vertex -9.48773 -15.701 0
    endloop
  endfacet
  facet normal 0.471397 -0.881921 0
    outer loop
      vertex -10.3889 -11.1704 0
      vertex -9.95671 -10.9393 4.6
      vertex -10.3889 -11.1704 4.6
    endloop
  endfacet
  facet normal 0.471397 -0.881921 0
    outer loop
      vertex -9.95671 -10.9393 4.6
      vertex -10.3889 -11.1704 0
      vertex -9.95671 -10.9393 0
    endloop
  endfacet
  facet normal 0.95694 -0.290285 0
    outer loop
      vertex -11.452 -12.7613 4.6
      vertex -11.3097 -12.2923 0
      vertex -11.3097 -12.2923 4.6
    endloop
  endfacet
  facet normal 0.95694 -0.290285 0
    outer loop
      vertex -11.3097 -12.2923 0
      vertex -11.452 -12.7613 4.6
      vertex -11.452 -12.7613 0
    endloop
  endfacet
  facet normal -0.881922 -0.471396 0
    outer loop
      vertex -6.6903 -12.2923 0
      vertex -6.92133 -11.8601 4.6
      vertex -6.92133 -11.8601 0
    endloop
  endfacet
  facet normal -0.881922 -0.471396 0
    outer loop
      vertex -6.92133 -11.8601 4.6
      vertex -6.6903 -12.2923 0
      vertex -6.6903 -12.2923 4.6
    endloop
  endfacet
  facet normal -0.773011 -0.634392 0
    outer loop
      vertex -6.92133 -11.8601 0
      vertex -7.23223 -11.4813 4.6
      vertex -7.23223 -11.4813 0
    endloop
  endfacet
  facet normal -0.773011 -0.634392 0
    outer loop
      vertex -7.23223 -11.4813 4.6
      vertex -6.92133 -11.8601 0
      vertex -6.92133 -11.8601 4.6
    endloop
  endfacet
  facet normal -0.634392 -0.773011 0
    outer loop
      vertex -7.61107 -11.1704 0
      vertex -7.23223 -11.4813 4.6
      vertex -7.61107 -11.1704 4.6
    endloop
  endfacet
  facet normal -0.634392 -0.773011 -0
    outer loop
      vertex -7.23223 -11.4813 4.6
      vertex -7.61107 -11.1704 0
      vertex -7.23223 -11.4813 0
    endloop
  endfacet
  facet normal -0.290285 -0.95694 0
    outer loop
      vertex -8.51227 -10.7971 0
      vertex -8.04329 -10.9393 4.6
      vertex -8.51227 -10.7971 4.6
    endloop
  endfacet
  facet normal -0.290285 -0.95694 -0
    outer loop
      vertex -8.04329 -10.9393 4.6
      vertex -8.51227 -10.7971 0
      vertex -8.04329 -10.9393 0
    endloop
  endfacet
  facet normal 0.0980185 -0.995185 0
    outer loop
      vertex -9.48773 -10.7971 0
      vertex -9 -10.749 4.6
      vertex -9.48773 -10.7971 4.6
    endloop
  endfacet
  facet normal 0.0980185 -0.995185 0
    outer loop
      vertex -9 -10.749 4.6
      vertex -9.48773 -10.7971 0
      vertex -9 -10.749 0
    endloop
  endfacet
  facet normal 0.995185 0.0980166 0
    outer loop
      vertex -11.452 -13.7368 4.6
      vertex -11.5 -13.249 0
      vertex -11.5 -13.249 4.6
    endloop
  endfacet
  facet normal 0.995185 0.0980166 0
    outer loop
      vertex -11.5 -13.249 0
      vertex -11.452 -13.7368 4.6
      vertex -11.452 -13.7368 0
    endloop
  endfacet
  facet normal 0.881922 -0.471396 0
    outer loop
      vertex -11.3097 -12.2923 4.6
      vertex -11.0787 -11.8601 0
      vertex -11.0787 -11.8601 4.6
    endloop
  endfacet
  facet normal 0.881922 -0.471396 0
    outer loop
      vertex -11.0787 -11.8601 0
      vertex -11.3097 -12.2923 4.6
      vertex -11.3097 -12.2923 0
    endloop
  endfacet
  facet normal 0.634392 -0.773011 0
    outer loop
      vertex -10.7678 -11.4813 0
      vertex -10.3889 -11.1704 4.6
      vertex -10.7678 -11.4813 4.6
    endloop
  endfacet
  facet normal 0.634392 -0.773011 0
    outer loop
      vertex -10.3889 -11.1704 4.6
      vertex -10.7678 -11.4813 0
      vertex -10.3889 -11.1704 0
    endloop
  endfacet
  facet normal 0.290285 -0.95694 0
    outer loop
      vertex -9.95671 -10.9393 0
      vertex -9.48773 -10.7971 4.6
      vertex -9.95671 -10.9393 4.6
    endloop
  endfacet
  facet normal 0.290285 -0.95694 0
    outer loop
      vertex -9.48773 -10.7971 4.6
      vertex -9.95671 -10.9393 0
      vertex -9.48773 -10.7971 0
    endloop
  endfacet
  facet normal 0.77301 -0.634394 0
    outer loop
      vertex -11.0787 -11.8601 4.6
      vertex -10.7678 -11.4813 0
      vertex -10.7678 -11.4813 4.6
    endloop
  endfacet
  facet normal 0.77301 -0.634394 0
    outer loop
      vertex -10.7678 -11.4813 0
      vertex -11.0787 -11.8601 4.6
      vertex -11.0787 -11.8601 0
    endloop
  endfacet
  facet normal -0.995185 -0.0980187 0
    outer loop
      vertex -6.5 -13.249 0
      vertex -6.54804 -12.7613 4.6
      vertex -6.54804 -12.7613 0
    endloop
  endfacet
  facet normal -0.995185 -0.0980187 0
    outer loop
      vertex -6.54804 -12.7613 4.6
      vertex -6.5 -13.249 0
      vertex -6.5 -13.249 4.6
    endloop
  endfacet
  facet normal -0.290285 0.95694 0
    outer loop
      vertex -8.04329 -15.5587 0
      vertex -8.51227 -15.701 4.6
      vertex -8.04329 -15.5587 4.6
    endloop
  endfacet
  facet normal -0.290285 0.95694 0
    outer loop
      vertex -8.51227 -15.701 4.6
      vertex -8.04329 -15.5587 0
      vertex -8.51227 -15.701 0
    endloop
  endfacet
  facet normal -0.881921 0.471397 0
    outer loop
      vertex -6.92133 -14.638 0
      vertex -6.6903 -14.2057 4.6
      vertex -6.6903 -14.2057 0
    endloop
  endfacet
  facet normal -0.881921 0.471397 0
    outer loop
      vertex -6.6903 -14.2057 4.6
      vertex -6.92133 -14.638 0
      vertex -6.92133 -14.638 4.6
    endloop
  endfacet
  facet normal -0.95694 0.290285 0
    outer loop
      vertex -6.6903 -14.2057 0
      vertex -6.54804 -13.7368 4.6
      vertex -6.54804 -13.7368 0
    endloop
  endfacet
  facet normal -0.95694 0.290285 0
    outer loop
      vertex -6.54804 -13.7368 4.6
      vertex -6.6903 -14.2057 0
      vertex -6.6903 -14.2057 4.6
    endloop
  endfacet
  facet normal -0.471396 0.881922 0
    outer loop
      vertex -7.61107 -15.3277 0
      vertex -8.04329 -15.5587 4.6
      vertex -7.61107 -15.3277 4.6
    endloop
  endfacet
  facet normal -0.471396 0.881922 0
    outer loop
      vertex -8.04329 -15.5587 4.6
      vertex -7.61107 -15.3277 0
      vertex -8.04329 -15.5587 0
    endloop
  endfacet
  facet normal -0.634394 0.77301 0
    outer loop
      vertex -7.23223 -15.0168 0
      vertex -7.61107 -15.3277 4.6
      vertex -7.23223 -15.0168 4.6
    endloop
  endfacet
  facet normal -0.634394 0.77301 0
    outer loop
      vertex -7.61107 -15.3277 4.6
      vertex -7.23223 -15.0168 0
      vertex -7.61107 -15.3277 0
    endloop
  endfacet
  facet normal -0.0980168 0.995185 0
    outer loop
      vertex -8.51227 -15.701 0
      vertex -9 -15.749 4.6
      vertex -8.51227 -15.701 4.6
    endloop
  endfacet
  facet normal -0.0980168 0.995185 0
    outer loop
      vertex -9 -15.749 4.6
      vertex -8.51227 -15.701 0
      vertex -9 -15.749 0
    endloop
  endfacet
  facet normal 0.471397 0.881921 -0
    outer loop
      vertex -9.95671 -15.5587 0
      vertex -10.3889 -15.3277 4.6
      vertex -9.95671 -15.5587 4.6
    endloop
  endfacet
  facet normal 0.471397 0.881921 0
    outer loop
      vertex -10.3889 -15.3277 4.6
      vertex -9.95671 -15.5587 0
      vertex -10.3889 -15.3277 0
    endloop
  endfacet
  facet normal 0.77301 0.634394 0
    outer loop
      vertex -10.7678 -15.0168 4.6
      vertex -11.0787 -14.638 0
      vertex -11.0787 -14.638 4.6
    endloop
  endfacet
  facet normal 0.77301 0.634394 0
    outer loop
      vertex -11.0787 -14.638 0
      vertex -10.7678 -15.0168 4.6
      vertex -10.7678 -15.0168 0
    endloop
  endfacet
  facet normal 0.95694 0.290285 0
    outer loop
      vertex -11.3097 -14.2057 4.6
      vertex -11.452 -13.7368 0
      vertex -11.452 -13.7368 4.6
    endloop
  endfacet
  facet normal 0.95694 0.290285 0
    outer loop
      vertex -11.452 -13.7368 0
      vertex -11.3097 -14.2057 4.6
      vertex -11.3097 -14.2057 0
    endloop
  endfacet
  facet normal -0.95694 -0.290285 0
    outer loop
      vertex -6.54804 -12.7613 0
      vertex -6.6903 -12.2923 4.6
      vertex -6.6903 -12.2923 0
    endloop
  endfacet
  facet normal -0.95694 -0.290285 0
    outer loop
      vertex -6.6903 -12.2923 4.6
      vertex -6.54804 -12.7613 0
      vertex -6.54804 -12.7613 4.6
    endloop
  endfacet
  facet normal -0.0980187 -0.995185 0
    outer loop
      vertex -9 -10.749 0
      vertex -8.51227 -10.7971 4.6
      vertex -9 -10.749 4.6
    endloop
  endfacet
  facet normal -0.0980187 -0.995185 -0
    outer loop
      vertex -8.51227 -10.7971 4.6
      vertex -9 -10.749 0
      vertex -8.51227 -10.7971 0
    endloop
  endfacet
  facet normal -0.773011 0.634392 0
    outer loop
      vertex -7.23223 -15.0168 0
      vertex -6.92133 -14.638 4.6
      vertex -6.92133 -14.638 0
    endloop
  endfacet
  facet normal -0.773011 0.634392 0
    outer loop
      vertex -6.92133 -14.638 4.6
      vertex -7.23223 -15.0168 0
      vertex -7.23223 -15.0168 4.6
    endloop
  endfacet
  facet normal 0.290285 0.95694 -0
    outer loop
      vertex -9.48773 -15.701 0
      vertex -9.95671 -15.5587 4.6
      vertex -9.48773 -15.701 4.6
    endloop
  endfacet
  facet normal 0.290285 0.95694 0
    outer loop
      vertex -9.95671 -15.5587 4.6
      vertex -9.48773 -15.701 0
      vertex -9.95671 -15.5587 0
    endloop
  endfacet
  facet normal 0.881921 0.471397 0
    outer loop
      vertex -11.0787 -14.638 4.6
      vertex -11.3097 -14.2057 0
      vertex -11.3097 -14.2057 4.6
    endloop
  endfacet
  facet normal 0.881921 0.471397 0
    outer loop
      vertex -11.3097 -14.2057 0
      vertex -11.0787 -14.638 4.6
      vertex -11.0787 -14.638 0
    endloop
  endfacet
  facet normal 0.634394 0.77301 -0
    outer loop
      vertex -10.3889 -15.3277 0
      vertex -10.7678 -15.0168 4.6
      vertex -10.3889 -15.3277 4.6
    endloop
  endfacet
  facet normal 0.634394 0.77301 0
    outer loop
      vertex -10.7678 -15.0168 4.6
      vertex -10.3889 -15.3277 0
      vertex -10.7678 -15.0168 0
    endloop
  endfacet
  facet normal -0.471396 -0.881922 0
    outer loop
      vertex 0.956708 -10.9393 0
      vertex 1.38893 -11.1704 4.6
      vertex 0.956708 -10.9393 4.6
    endloop
  endfacet
  facet normal -0.471396 -0.881922 -0
    outer loop
      vertex 1.38893 -11.1704 4.6
      vertex 0.956708 -10.9393 0
      vertex 1.38893 -11.1704 0
    endloop
  endfacet
  facet normal -0.995185 0.0980185 0
    outer loop
      vertex 2.45196 -13.7368 0
      vertex 2.5 -13.249 4.6
      vertex 2.5 -13.249 0
    endloop
  endfacet
  facet normal -0.995185 0.0980185 0
    outer loop
      vertex 2.5 -13.249 4.6
      vertex 2.45196 -13.7368 0
      vertex 2.45196 -13.7368 4.6
    endloop
  endfacet
  facet normal 0.0980166 0.995185 -0
    outer loop
      vertex -1.0376e-007 -15.749 0
      vertex -0.487726 -15.701 4.6
      vertex -1.0376e-007 -15.749 4.6
    endloop
  endfacet
  facet normal 0.0980166 0.995185 0
    outer loop
      vertex -0.487726 -15.701 4.6
      vertex -1.0376e-007 -15.749 0
      vertex -0.487726 -15.701 0
    endloop
  endfacet
  facet normal 0.471397 -0.881921 0
    outer loop
      vertex -1.38893 -11.1704 0
      vertex -0.956709 -10.9393 4.6
      vertex -1.38893 -11.1704 4.6
    endloop
  endfacet
  facet normal 0.471397 -0.881921 0
    outer loop
      vertex -0.956709 -10.9393 4.6
      vertex -1.38893 -11.1704 0
      vertex -0.956709 -10.9393 0
    endloop
  endfacet
  facet normal 0.95694 -0.290285 0
    outer loop
      vertex -2.45196 -12.7613 4.6
      vertex -2.3097 -12.2923 0
      vertex -2.3097 -12.2923 4.6
    endloop
  endfacet
  facet normal 0.95694 -0.290285 0
    outer loop
      vertex -2.3097 -12.2923 0
      vertex -2.45196 -12.7613 4.6
      vertex -2.45196 -12.7613 0
    endloop
  endfacet
  facet normal -0.95694 -0.290285 0
    outer loop
      vertex 2.45196 -12.7613 0
      vertex 2.3097 -12.2923 4.6
      vertex 2.3097 -12.2923 0
    endloop
  endfacet
  facet normal -0.95694 -0.290285 0
    outer loop
      vertex 2.3097 -12.2923 4.6
      vertex 2.45196 -12.7613 0
      vertex 2.45196 -12.7613 4.6
    endloop
  endfacet
  facet normal -0.881922 -0.471396 0
    outer loop
      vertex 2.3097 -12.2923 0
      vertex 2.07867 -11.8601 4.6
      vertex 2.07867 -11.8601 0
    endloop
  endfacet
  facet normal -0.881922 -0.471396 0
    outer loop
      vertex 2.07867 -11.8601 4.6
      vertex 2.3097 -12.2923 0
      vertex 2.3097 -12.2923 4.6
    endloop
  endfacet
  facet normal -0.773011 -0.634393 0
    outer loop
      vertex 2.07867 -11.8601 0
      vertex 1.76777 -11.4813 4.6
      vertex 1.76777 -11.4813 0
    endloop
  endfacet
  facet normal -0.773011 -0.634393 0
    outer loop
      vertex 1.76777 -11.4813 4.6
      vertex 2.07867 -11.8601 0
      vertex 2.07867 -11.8601 4.6
    endloop
  endfacet
  facet normal -0.634392 -0.773011 0
    outer loop
      vertex 1.38893 -11.1704 0
      vertex 1.76777 -11.4813 4.6
      vertex 1.38893 -11.1704 4.6
    endloop
  endfacet
  facet normal -0.634392 -0.773011 -0
    outer loop
      vertex 1.76777 -11.4813 4.6
      vertex 1.38893 -11.1704 0
      vertex 1.76777 -11.4813 0
    endloop
  endfacet
  facet normal -0.290285 -0.95694 0
    outer loop
      vertex 0.487725 -10.7971 0
      vertex 0.956708 -10.9393 4.6
      vertex 0.487725 -10.7971 4.6
    endloop
  endfacet
  facet normal -0.290285 -0.95694 -0
    outer loop
      vertex 0.956708 -10.9393 4.6
      vertex 0.487725 -10.7971 0
      vertex 0.956708 -10.9393 0
    endloop
  endfacet
  facet normal 0.0980185 -0.995185 0
    outer loop
      vertex -0.487726 -10.7971 0
      vertex -1.0376e-007 -10.749 4.6
      vertex -0.487726 -10.7971 4.6
    endloop
  endfacet
  facet normal 0.0980185 -0.995185 0
    outer loop
      vertex -1.0376e-007 -10.749 4.6
      vertex -0.487726 -10.7971 0
      vertex -1.0376e-007 -10.749 0
    endloop
  endfacet
  facet normal 0.995185 0.0980166 0
    outer loop
      vertex -2.45196 -13.7368 4.6
      vertex -2.5 -13.249 0
      vertex -2.5 -13.249 4.6
    endloop
  endfacet
  facet normal 0.995185 0.0980166 0
    outer loop
      vertex -2.5 -13.249 0
      vertex -2.45196 -13.7368 4.6
      vertex -2.45196 -13.7368 0
    endloop
  endfacet
  facet normal 0.881922 -0.471396 0
    outer loop
      vertex -2.3097 -12.2923 4.6
      vertex -2.07867 -11.8601 0
      vertex -2.07867 -11.8601 4.6
    endloop
  endfacet
  facet normal 0.881922 -0.471396 0
    outer loop
      vertex -2.07867 -11.8601 0
      vertex -2.3097 -12.2923 4.6
      vertex -2.3097 -12.2923 0
    endloop
  endfacet
  facet normal 0.634392 -0.773011 0
    outer loop
      vertex -1.76777 -11.4813 0
      vertex -1.38893 -11.1704 4.6
      vertex -1.76777 -11.4813 4.6
    endloop
  endfacet
  facet normal 0.634392 -0.773011 0
    outer loop
      vertex -1.38893 -11.1704 4.6
      vertex -1.76777 -11.4813 0
      vertex -1.38893 -11.1704 0
    endloop
  endfacet
  facet normal 0.290285 -0.95694 0
    outer loop
      vertex -0.956709 -10.9393 0
      vertex -0.487726 -10.7971 4.6
      vertex -0.956709 -10.9393 4.6
    endloop
  endfacet
  facet normal 0.290285 -0.95694 0
    outer loop
      vertex -0.487726 -10.7971 4.6
      vertex -0.956709 -10.9393 0
      vertex -0.487726 -10.7971 0
    endloop
  endfacet
  facet normal 0.77301 -0.634393 0
    outer loop
      vertex -2.07867 -11.8601 4.6
      vertex -1.76777 -11.4813 0
      vertex -1.76777 -11.4813 4.6
    endloop
  endfacet
  facet normal 0.77301 -0.634393 0
    outer loop
      vertex -1.76777 -11.4813 0
      vertex -2.07867 -11.8601 4.6
      vertex -2.07867 -11.8601 0
    endloop
  endfacet
  facet normal -0.995185 -0.0980187 0
    outer loop
      vertex 2.5 -13.249 0
      vertex 2.45196 -12.7613 4.6
      vertex 2.45196 -12.7613 0
    endloop
  endfacet
  facet normal -0.995185 -0.0980187 0
    outer loop
      vertex 2.45196 -12.7613 4.6
      vertex 2.5 -13.249 0
      vertex 2.5 -13.249 4.6
    endloop
  endfacet
  facet normal -0.290285 0.95694 0
    outer loop
      vertex 0.956708 -15.5587 0
      vertex 0.487725 -15.701 4.6
      vertex 0.956708 -15.5587 4.6
    endloop
  endfacet
  facet normal -0.290285 0.95694 0
    outer loop
      vertex 0.487725 -15.701 4.6
      vertex 0.956708 -15.5587 0
      vertex 0.487725 -15.701 0
    endloop
  endfacet
  facet normal -0.881921 0.471397 0
    outer loop
      vertex 2.07867 -14.638 0
      vertex 2.3097 -14.2057 4.6
      vertex 2.3097 -14.2057 0
    endloop
  endfacet
  facet normal -0.881921 0.471397 0
    outer loop
      vertex 2.3097 -14.2057 4.6
      vertex 2.07867 -14.638 0
      vertex 2.07867 -14.638 4.6
    endloop
  endfacet
  facet normal -0.95694 0.290285 0
    outer loop
      vertex 2.3097 -14.2057 0
      vertex 2.45196 -13.7368 4.6
      vertex 2.45196 -13.7368 0
    endloop
  endfacet
  facet normal -0.95694 0.290285 0
    outer loop
      vertex 2.45196 -13.7368 4.6
      vertex 2.3097 -14.2057 0
      vertex 2.3097 -14.2057 4.6
    endloop
  endfacet
  facet normal -0.471396 0.881922 0
    outer loop
      vertex 1.38893 -15.3277 0
      vertex 0.956708 -15.5587 4.6
      vertex 1.38893 -15.3277 4.6
    endloop
  endfacet
  facet normal -0.471396 0.881922 0
    outer loop
      vertex 0.956708 -15.5587 4.6
      vertex 1.38893 -15.3277 0
      vertex 0.956708 -15.5587 0
    endloop
  endfacet
  facet normal -0.634394 0.77301 0
    outer loop
      vertex 1.76777 -15.0168 0
      vertex 1.38893 -15.3277 4.6
      vertex 1.76777 -15.0168 4.6
    endloop
  endfacet
  facet normal -0.634394 0.77301 0
    outer loop
      vertex 1.38893 -15.3277 4.6
      vertex 1.76777 -15.0168 0
      vertex 1.38893 -15.3277 0
    endloop
  endfacet
  facet normal -0.0980168 0.995185 0
    outer loop
      vertex 0.487725 -15.701 0
      vertex -1.0376e-007 -15.749 4.6
      vertex 0.487725 -15.701 4.6
    endloop
  endfacet
  facet normal -0.0980168 0.995185 0
    outer loop
      vertex -1.0376e-007 -15.749 4.6
      vertex 0.487725 -15.701 0
      vertex -1.0376e-007 -15.749 0
    endloop
  endfacet
  facet normal 0.471397 0.881921 -0
    outer loop
      vertex -0.956709 -15.5587 0
      vertex -1.38893 -15.3277 4.6
      vertex -0.956709 -15.5587 4.6
    endloop
  endfacet
  facet normal 0.471397 0.881921 0
    outer loop
      vertex -1.38893 -15.3277 4.6
      vertex -0.956709 -15.5587 0
      vertex -1.38893 -15.3277 0
    endloop
  endfacet
  facet normal 0.77301 0.634393 0
    outer loop
      vertex -1.76777 -15.0168 4.6
      vertex -2.07867 -14.638 0
      vertex -2.07867 -14.638 4.6
    endloop
  endfacet
  facet normal 0.77301 0.634393 0
    outer loop
      vertex -2.07867 -14.638 0
      vertex -1.76777 -15.0168 4.6
      vertex -1.76777 -15.0168 0
    endloop
  endfacet
  facet normal 0.95694 0.290285 0
    outer loop
      vertex -2.3097 -14.2057 4.6
      vertex -2.45196 -13.7368 0
      vertex -2.45196 -13.7368 4.6
    endloop
  endfacet
  facet normal 0.95694 0.290285 0
    outer loop
      vertex -2.45196 -13.7368 0
      vertex -2.3097 -14.2057 4.6
      vertex -2.3097 -14.2057 0
    endloop
  endfacet
  facet normal 0.634394 0.77301 -0
    outer loop
      vertex -1.38893 -15.3277 0
      vertex -1.76777 -15.0168 4.6
      vertex -1.38893 -15.3277 4.6
    endloop
  endfacet
  facet normal 0.634394 0.77301 0
    outer loop
      vertex -1.76777 -15.0168 4.6
      vertex -1.38893 -15.3277 0
      vertex -1.76777 -15.0168 0
    endloop
  endfacet
  facet normal -0.0980187 -0.995185 0
    outer loop
      vertex -1.0376e-007 -10.749 0
      vertex 0.487725 -10.7971 4.6
      vertex -1.0376e-007 -10.749 4.6
    endloop
  endfacet
  facet normal -0.0980187 -0.995185 -0
    outer loop
      vertex 0.487725 -10.7971 4.6
      vertex -1.0376e-007 -10.749 0
      vertex 0.487725 -10.7971 0
    endloop
  endfacet
  facet normal 0.995185 -0.0980168 0
    outer loop
      vertex -2.5 -13.249 4.6
      vertex -2.45196 -12.7613 0
      vertex -2.45196 -12.7613 4.6
    endloop
  endfacet
  facet normal 0.995185 -0.0980168 0
    outer loop
      vertex -2.45196 -12.7613 0
      vertex -2.5 -13.249 4.6
      vertex -2.5 -13.249 0
    endloop
  endfacet
  facet normal -0.773011 0.634393 0
    outer loop
      vertex 1.76777 -15.0168 0
      vertex 2.07867 -14.638 4.6
      vertex 2.07867 -14.638 0
    endloop
  endfacet
  facet normal -0.773011 0.634393 0
    outer loop
      vertex 2.07867 -14.638 4.6
      vertex 1.76777 -15.0168 0
      vertex 1.76777 -15.0168 4.6
    endloop
  endfacet
  facet normal 0.290285 0.95694 -0
    outer loop
      vertex -0.487726 -15.701 0
      vertex -0.956709 -15.5587 4.6
      vertex -0.487726 -15.701 4.6
    endloop
  endfacet
  facet normal 0.290285 0.95694 0
    outer loop
      vertex -0.956709 -15.5587 4.6
      vertex -0.487726 -15.701 0
      vertex -0.956709 -15.5587 0
    endloop
  endfacet
  facet normal 0.881921 0.471397 0
    outer loop
      vertex -2.07867 -14.638 4.6
      vertex -2.3097 -14.2057 0
      vertex -2.3097 -14.2057 4.6
    endloop
  endfacet
  facet normal 0.881921 0.471397 0
    outer loop
      vertex -2.3097 -14.2057 0
      vertex -2.07867 -14.638 4.6
      vertex -2.07867 -14.638 0
    endloop
  endfacet
  facet normal -0.471396 -0.881922 0
    outer loop
      vertex 9.95671 -10.9393 0
      vertex 10.3889 -11.1704 4.6
      vertex 9.95671 -10.9393 4.6
    endloop
  endfacet
  facet normal -0.471396 -0.881922 -0
    outer loop
      vertex 10.3889 -11.1704 4.6
      vertex 9.95671 -10.9393 0
      vertex 10.3889 -11.1704 0
    endloop
  endfacet
  facet normal -0.995185 0.0980185 0
    outer loop
      vertex 11.452 -13.7368 0
      vertex 11.5 -13.249 4.6
      vertex 11.5 -13.249 0
    endloop
  endfacet
  facet normal -0.995185 0.0980185 0
    outer loop
      vertex 11.5 -13.249 4.6
      vertex 11.452 -13.7368 0
      vertex 11.452 -13.7368 4.6
    endloop
  endfacet
  facet normal 0.0980166 0.995185 -0
    outer loop
      vertex 9 -15.749 0
      vertex 8.51227 -15.701 4.6
      vertex 9 -15.749 4.6
    endloop
  endfacet
  facet normal 0.0980166 0.995185 0
    outer loop
      vertex 8.51227 -15.701 4.6
      vertex 9 -15.749 0
      vertex 8.51227 -15.701 0
    endloop
  endfacet
  facet normal 0.471397 -0.881921 0
    outer loop
      vertex 7.61107 -11.1704 0
      vertex 8.04329 -10.9393 4.6
      vertex 7.61107 -11.1704 4.6
    endloop
  endfacet
  facet normal 0.471397 -0.881921 0
    outer loop
      vertex 8.04329 -10.9393 4.6
      vertex 7.61107 -11.1704 0
      vertex 8.04329 -10.9393 0
    endloop
  endfacet
  facet normal 0.95694 -0.290285 0
    outer loop
      vertex 6.54804 -12.7613 4.6
      vertex 6.6903 -12.2923 0
      vertex 6.6903 -12.2923 4.6
    endloop
  endfacet
  facet normal 0.95694 -0.290285 0
    outer loop
      vertex 6.6903 -12.2923 0
      vertex 6.54804 -12.7613 4.6
      vertex 6.54804 -12.7613 0
    endloop
  endfacet
  facet normal -0.95694 -0.290285 0
    outer loop
      vertex 11.452 -12.7613 0
      vertex 11.3097 -12.2923 4.6
      vertex 11.3097 -12.2923 0
    endloop
  endfacet
  facet normal -0.95694 -0.290285 0
    outer loop
      vertex 11.3097 -12.2923 4.6
      vertex 11.452 -12.7613 0
      vertex 11.452 -12.7613 4.6
    endloop
  endfacet
  facet normal -0.881922 -0.471396 0
    outer loop
      vertex 11.3097 -12.2923 0
      vertex 11.0787 -11.8601 4.6
      vertex 11.0787 -11.8601 0
    endloop
  endfacet
  facet normal -0.881922 -0.471396 0
    outer loop
      vertex 11.0787 -11.8601 4.6
      vertex 11.3097 -12.2923 0
      vertex 11.3097 -12.2923 4.6
    endloop
  endfacet
  facet normal -0.773011 -0.634392 0
    outer loop
      vertex 11.0787 -11.8601 0
      vertex 10.7678 -11.4813 4.6
      vertex 10.7678 -11.4813 0
    endloop
  endfacet
  facet normal -0.773011 -0.634392 0
    outer loop
      vertex 10.7678 -11.4813 4.6
      vertex 11.0787 -11.8601 0
      vertex 11.0787 -11.8601 4.6
    endloop
  endfacet
  facet normal -0.634392 -0.773011 0
    outer loop
      vertex 10.3889 -11.1704 0
      vertex 10.7678 -11.4813 4.6
      vertex 10.3889 -11.1704 4.6
    endloop
  endfacet
  facet normal -0.634392 -0.773011 -0
    outer loop
      vertex 10.7678 -11.4813 4.6
      vertex 10.3889 -11.1704 0
      vertex 10.7678 -11.4813 0
    endloop
  endfacet
  facet normal -0.290285 -0.95694 0
    outer loop
      vertex 9.48773 -10.7971 0
      vertex 9.95671 -10.9393 4.6
      vertex 9.48773 -10.7971 4.6
    endloop
  endfacet
  facet normal -0.290285 -0.95694 -0
    outer loop
      vertex 9.95671 -10.9393 4.6
      vertex 9.48773 -10.7971 0
      vertex 9.95671 -10.9393 0
    endloop
  endfacet
  facet normal 0.0980185 -0.995185 0
    outer loop
      vertex 8.51227 -10.7971 0
      vertex 9 -10.749 4.6
      vertex 8.51227 -10.7971 4.6
    endloop
  endfacet
  facet normal 0.0980185 -0.995185 0
    outer loop
      vertex 9 -10.749 4.6
      vertex 8.51227 -10.7971 0
      vertex 9 -10.749 0
    endloop
  endfacet
  facet normal 0.995185 0.0980166 0
    outer loop
      vertex 6.54804 -13.7368 4.6
      vertex 6.5 -13.249 0
      vertex 6.5 -13.249 4.6
    endloop
  endfacet
  facet normal 0.995185 0.0980166 0
    outer loop
      vertex 6.5 -13.249 0
      vertex 6.54804 -13.7368 4.6
      vertex 6.54804 -13.7368 0
    endloop
  endfacet
  facet normal 0.881922 -0.471396 0
    outer loop
      vertex 6.6903 -12.2923 4.6
      vertex 6.92133 -11.8601 0
      vertex 6.92133 -11.8601 4.6
    endloop
  endfacet
  facet normal 0.881922 -0.471396 0
    outer loop
      vertex 6.92133 -11.8601 0
      vertex 6.6903 -12.2923 4.6
      vertex 6.6903 -12.2923 0
    endloop
  endfacet
  facet normal 0.634392 -0.773011 0
    outer loop
      vertex 7.23223 -11.4813 0
      vertex 7.61107 -11.1704 4.6
      vertex 7.23223 -11.4813 4.6
    endloop
  endfacet
  facet normal 0.634392 -0.773011 0
    outer loop
      vertex 7.61107 -11.1704 4.6
      vertex 7.23223 -11.4813 0
      vertex 7.61107 -11.1704 0
    endloop
  endfacet
  facet normal 0.290285 -0.95694 0
    outer loop
      vertex 8.04329 -10.9393 0
      vertex 8.51227 -10.7971 4.6
      vertex 8.04329 -10.9393 4.6
    endloop
  endfacet
  facet normal 0.290285 -0.95694 0
    outer loop
      vertex 8.51227 -10.7971 4.6
      vertex 8.04329 -10.9393 0
      vertex 8.51227 -10.7971 0
    endloop
  endfacet
  facet normal 0.77301 -0.634394 0
    outer loop
      vertex 6.92133 -11.8601 4.6
      vertex 7.23223 -11.4813 0
      vertex 7.23223 -11.4813 4.6
    endloop
  endfacet
  facet normal 0.77301 -0.634394 0
    outer loop
      vertex 7.23223 -11.4813 0
      vertex 6.92133 -11.8601 4.6
      vertex 6.92133 -11.8601 0
    endloop
  endfacet
  facet normal -0.995185 -0.0980187 0
    outer loop
      vertex 11.5 -13.249 0
      vertex 11.452 -12.7613 4.6
      vertex 11.452 -12.7613 0
    endloop
  endfacet
  facet normal -0.995185 -0.0980187 0
    outer loop
      vertex 11.452 -12.7613 4.6
      vertex 11.5 -13.249 0
      vertex 11.5 -13.249 4.6
    endloop
  endfacet
  facet normal -0.290285 0.95694 0
    outer loop
      vertex 9.95671 -15.5587 0
      vertex 9.48773 -15.701 4.6
      vertex 9.95671 -15.5587 4.6
    endloop
  endfacet
  facet normal -0.290285 0.95694 0
    outer loop
      vertex 9.48773 -15.701 4.6
      vertex 9.95671 -15.5587 0
      vertex 9.48773 -15.701 0
    endloop
  endfacet
  facet normal -0.881921 0.471397 0
    outer loop
      vertex 11.0787 -14.638 0
      vertex 11.3097 -14.2057 4.6
      vertex 11.3097 -14.2057 0
    endloop
  endfacet
  facet normal -0.881921 0.471397 0
    outer loop
      vertex 11.3097 -14.2057 4.6
      vertex 11.0787 -14.638 0
      vertex 11.0787 -14.638 4.6
    endloop
  endfacet
  facet normal -0.95694 0.290285 0
    outer loop
      vertex 11.3097 -14.2057 0
      vertex 11.452 -13.7368 4.6
      vertex 11.452 -13.7368 0
    endloop
  endfacet
  facet normal -0.95694 0.290285 0
    outer loop
      vertex 11.452 -13.7368 4.6
      vertex 11.3097 -14.2057 0
      vertex 11.3097 -14.2057 4.6
    endloop
  endfacet
  facet normal -0.471396 0.881922 0
    outer loop
      vertex 10.3889 -15.3277 0
      vertex 9.95671 -15.5587 4.6
      vertex 10.3889 -15.3277 4.6
    endloop
  endfacet
  facet normal -0.471396 0.881922 0
    outer loop
      vertex 9.95671 -15.5587 4.6
      vertex 10.3889 -15.3277 0
      vertex 9.95671 -15.5587 0
    endloop
  endfacet
  facet normal -0.634394 0.77301 0
    outer loop
      vertex 10.7678 -15.0168 0
      vertex 10.3889 -15.3277 4.6
      vertex 10.7678 -15.0168 4.6
    endloop
  endfacet
  facet normal -0.634394 0.77301 0
    outer loop
      vertex 10.3889 -15.3277 4.6
      vertex 10.7678 -15.0168 0
      vertex 10.3889 -15.3277 0
    endloop
  endfacet
  facet normal -0.0980168 0.995185 0
    outer loop
      vertex 9.48773 -15.701 0
      vertex 9 -15.749 4.6
      vertex 9.48773 -15.701 4.6
    endloop
  endfacet
  facet normal -0.0980168 0.995185 0
    outer loop
      vertex 9 -15.749 4.6
      vertex 9.48773 -15.701 0
      vertex 9 -15.749 0
    endloop
  endfacet
  facet normal 0.471397 0.881921 -0
    outer loop
      vertex 8.04329 -15.5587 0
      vertex 7.61107 -15.3277 4.6
      vertex 8.04329 -15.5587 4.6
    endloop
  endfacet
  facet normal 0.471397 0.881921 0
    outer loop
      vertex 7.61107 -15.3277 4.6
      vertex 8.04329 -15.5587 0
      vertex 7.61107 -15.3277 0
    endloop
  endfacet
  facet normal 0.77301 0.634394 0
    outer loop
      vertex 7.23223 -15.0168 4.6
      vertex 6.92133 -14.638 0
      vertex 6.92133 -14.638 4.6
    endloop
  endfacet
  facet normal 0.77301 0.634394 0
    outer loop
      vertex 6.92133 -14.638 0
      vertex 7.23223 -15.0168 4.6
      vertex 7.23223 -15.0168 0
    endloop
  endfacet
  facet normal 0.95694 0.290285 0
    outer loop
      vertex 6.6903 -14.2057 4.6
      vertex 6.54804 -13.7368 0
      vertex 6.54804 -13.7368 4.6
    endloop
  endfacet
  facet normal 0.95694 0.290285 0
    outer loop
      vertex 6.54804 -13.7368 0
      vertex 6.6903 -14.2057 4.6
      vertex 6.6903 -14.2057 0
    endloop
  endfacet
  facet normal 0.634394 0.77301 -0
    outer loop
      vertex 7.61107 -15.3277 0
      vertex 7.23223 -15.0168 4.6
      vertex 7.61107 -15.3277 4.6
    endloop
  endfacet
  facet normal 0.634394 0.77301 0
    outer loop
      vertex 7.23223 -15.0168 4.6
      vertex 7.61107 -15.3277 0
      vertex 7.23223 -15.0168 0
    endloop
  endfacet
  facet normal -0.0980187 -0.995185 0
    outer loop
      vertex 9 -10.749 0
      vertex 9.48773 -10.7971 4.6
      vertex 9 -10.749 4.6
    endloop
  endfacet
  facet normal -0.0980187 -0.995185 -0
    outer loop
      vertex 9.48773 -10.7971 4.6
      vertex 9 -10.749 0
      vertex 9.48773 -10.7971 0
    endloop
  endfacet
  facet normal 0.995185 -0.0980168 0
    outer loop
      vertex 6.5 -13.249 4.6
      vertex 6.54804 -12.7613 0
      vertex 6.54804 -12.7613 4.6
    endloop
  endfacet
  facet normal 0.995185 -0.0980168 0
    outer loop
      vertex 6.54804 -12.7613 0
      vertex 6.5 -13.249 4.6
      vertex 6.5 -13.249 0
    endloop
  endfacet
  facet normal -0.773011 0.634392 0
    outer loop
      vertex 10.7678 -15.0168 0
      vertex 11.0787 -14.638 4.6
      vertex 11.0787 -14.638 0
    endloop
  endfacet
  facet normal -0.773011 0.634392 0
    outer loop
      vertex 11.0787 -14.638 4.6
      vertex 10.7678 -15.0168 0
      vertex 10.7678 -15.0168 4.6
    endloop
  endfacet
  facet normal 0.290285 0.95694 -0
    outer loop
      vertex 8.51227 -15.701 0
      vertex 8.04329 -15.5587 4.6
      vertex 8.51227 -15.701 4.6
    endloop
  endfacet
  facet normal 0.290285 0.95694 0
    outer loop
      vertex 8.04329 -15.5587 4.6
      vertex 8.51227 -15.701 0
      vertex 8.04329 -15.5587 0
    endloop
  endfacet
  facet normal 0.881921 0.471397 0
    outer loop
      vertex 6.92133 -14.638 4.6
      vertex 6.6903 -14.2057 0
      vertex 6.6903 -14.2057 4.6
    endloop
  endfacet
  facet normal 0.881921 0.471397 0
    outer loop
      vertex 6.6903 -14.2057 0
      vertex 6.92133 -14.638 4.6
      vertex 6.92133 -14.638 0
    endloop
  endfacet
  facet normal -1 0 0
    outer loop
      vertex -12.0325 -6.45603 4.6
      vertex -12.0325 -4.87603 5.45
      vertex -12.0325 -4.87603 4.6
    endloop
  endfacet
  facet normal -1 -0 0
    outer loop
      vertex -12.0325 -4.87603 5.45
      vertex -12.0325 -6.45603 4.6
      vertex -12.0325 -6.45603 5.45
    endloop
  endfacet
  facet normal -0 0 1
    outer loop
      vertex -12.0325 -4.87603 5.45
      vertex 12.0325 -6.45603 5.45
      vertex 12.0325 -4.87603 5.45
    endloop
  endfacet
  facet normal 0 0 1
    outer loop
      vertex 12.0325 -6.45603 5.45
      vertex -12.0325 -4.87603 5.45
      vertex -12.0325 -6.45603 5.45
    endloop
  endfacet
  facet normal 1 -0 0
    outer loop
      vertex 12.0325 -6.45603 5.45
      vertex 12.0325 -4.87603 4.6
      vertex 12.0325 -4.87603 5.45
    endloop
  endfacet
  facet normal 1 0 0
    outer loop
      vertex 12.0325 -4.87603 4.6
      vertex 12.0325 -6.45603 5.45
      vertex 12.0325 -6.45603 4.6
    endloop
  endfacet
  facet normal 0 -1 0
    outer loop
      vertex -12.0325 -6.45603 4.6
      vertex 12.0325 -6.45603 5.45
      vertex -12.0325 -6.45603 5.45
    endloop
  endfacet
  facet normal 0 -1 -0
    outer loop
      vertex 12.0325 -6.45603 5.45
      vertex -12.0325 -6.45603 4.6
      vertex 12.0325 -6.45603 4.6
    endloop
  endfacet
  facet normal 0 1 -0
    outer loop
      vertex 12.0325 -4.87603 4.6
      vertex -12.0325 -4.87603 5.45
      vertex 12.0325 -4.87603 5.45
    endloop
  endfacet
  facet normal 0 1 0
    outer loop
      vertex -12.0325 -4.87603 5.45
      vertex 12.0325 -4.87603 4.6
      vertex -12.0325 -4.87603 4.6
    endloop
  endfacet
endsolid OpenSCAD_Model
